# Estadio EPT - solo cubo y prisma triangular
v -52.500000 -34.000000 0.000000
v -52.500000 34.000000 0.000000
v 52.500000 34.000000 0.000000
v 52.500000 -34.000000 0.000000
v -52.500000 -34.000000 2.000000
v 52.500000 -34.000000 2.000000
v 52.500000 34.000000 2.000000
v -52.500000 34.000000 2.000000
f 1 2 3
f 1 3 4
f 5 6 7
f 5 7 8
f 1 4 6
f 1 6 5
f 2 8 7
f 2 7 3
f 1 5 8
f 1 8 2
f 4 3 7
f 4 7 6
v -40.833333 -34.000000 2.000000
v -40.833333 34.000000 2.000000
v -29.166667 34.000000 2.000000
v -29.166667 -34.000000 2.000000
v -40.833333 -34.000000 2.600000
v -29.166667 -34.000000 2.600000
v -29.166667 34.000000 2.600000
v -40.833333 34.000000 2.600000
f 9 10 11
f 9 11 12
f 13 14 15
f 13 15 16
f 9 12 14
f 9 14 13
f 10 16 15
f 10 15 11
f 9 13 16
f 9 16 10
f 12 11 15
f 12 15 14
v -17.500000 -34.000000 2.000000
v -17.500000 34.000000 2.000000
v -5.833333 34.000000 2.000000
v -5.833333 -34.000000 2.000000
v -17.500000 -34.000000 2.600000
v -5.833333 -34.000000 2.600000
v -5.833333 34.000000 2.600000
v -17.500000 34.000000 2.600000
f 17 18 19
f 17 19 20
f 21 22 23
f 21 23 24
f 17 20 22
f 17 22 21
f 18 24 23
f 18 23 19
f 17 21 24
f 17 24 18
f 20 19 23
f 20 23 22
v 5.833333 -34.000000 2.000000
v 5.833333 34.000000 2.000000
v 17.500000 34.000000 2.000000
v 17.500000 -34.000000 2.000000
v 5.833333 -34.000000 2.600000
v 17.500000 -34.000000 2.600000
v 17.500000 34.000000 2.600000
v 5.833333 34.000000 2.600000
f 25 26 27
f 25 27 28
f 29 30 31
f 29 31 32
f 25 28 30
f 25 30 29
f 26 32 31
f 26 31 27
f 25 29 32
f 25 32 26
f 28 27 31
f 28 31 30
v 29.166667 -34.000000 2.000000
v 29.166667 34.000000 2.000000
v 40.833333 34.000000 2.000000
v 40.833333 -34.000000 2.000000
v 29.166667 -34.000000 2.600000
v 40.833333 -34.000000 2.600000
v 40.833333 34.000000 2.600000
v 29.166667 34.000000 2.600000
f 33 34 35
f 33 35 36
f 37 38 39
f 37 39 40
f 33 36 38
f 33 38 37
f 34 40 39
f 34 39 35
f 33 37 40
f 33 40 34
f 36 35 39
f 36 39 38
v -52.500000 -34.000000 2.600000
v -52.500000 -33.600000 2.600000
v 52.500000 -33.600000 2.600000
v 52.500000 -34.000000 2.600000
v -52.500000 -34.000000 2.900000
v 52.500000 -34.000000 2.900000
v 52.500000 -33.600000 2.900000
v -52.500000 -33.600000 2.900000
f 41 42 43
f 41 43 44
f 45 46 47
f 45 47 48
f 41 44 46
f 41 46 45
f 42 48 47
f 42 47 43
f 41 45 48
f 41 48 42
f 44 43 47
f 44 47 46
v -52.500000 33.600000 2.600000
v -52.500000 34.000000 2.600000
v 52.500000 34.000000 2.600000
v 52.500000 33.600000 2.600000
v -52.500000 33.600000 2.900000
v 52.500000 33.600000 2.900000
v 52.500000 34.000000 2.900000
v -52.500000 34.000000 2.900000
f 49 50 51
f 49 51 52
f 53 54 55
f 53 55 56
f 49 52 54
f 49 54 53
f 50 56 55
f 50 55 51
f 49 53 56
f 49 56 50
f 52 51 55
f 52 55 54
v -52.500000 -34.000000 2.600000
v -52.500000 34.000000 2.600000
v -52.100000 34.000000 2.600000
v -52.100000 -34.000000 2.600000
v -52.500000 -34.000000 2.900000
v -52.100000 -34.000000 2.900000
v -52.100000 34.000000 2.900000
v -52.500000 34.000000 2.900000
f 57 58 59
f 57 59 60
f 61 62 63
f 61 63 64
f 57 60 62
f 57 62 61
f 58 64 63
f 58 63 59
f 57 61 64
f 57 64 58
f 60 59 63
f 60 63 62
v 52.100000 -34.000000 2.600000
v 52.100000 34.000000 2.600000
v 52.500000 34.000000 2.600000
v 52.500000 -34.000000 2.600000
v 52.100000 -34.000000 2.900000
v 52.500000 -34.000000 2.900000
v 52.500000 34.000000 2.900000
v 52.100000 34.000000 2.900000
f 65 66 67
f 65 67 68
f 69 70 71
f 69 71 72
f 65 68 70
f 65 70 69
f 66 72 71
f 66 71 67
f 65 69 72
f 65 72 66
f 68 67 71
f 68 71 70
v -0.200000 -33.600000 2.600000
v -0.200000 33.600000 2.600000
v 0.200000 33.600000 2.600000
v 0.200000 -33.600000 2.600000
v -0.200000 -33.600000 2.900000
v 0.200000 -33.600000 2.900000
v 0.200000 33.600000 2.900000
v -0.200000 33.600000 2.900000
f 73 74 75
f 73 75 76
f 77 78 79
f 77 79 80
f 73 76 78
f 73 78 77
f 74 80 79
f 74 79 75
f 73 77 80
f 73 80 74
f 76 75 79
f 76 79 78
v -36.200000 -20.160000 2.600000
v -36.200000 20.160000 2.600000
v -35.800000 20.160000 2.600000
v -35.800000 -20.160000 2.600000
v -36.200000 -20.160000 2.900000
v -35.800000 -20.160000 2.900000
v -35.800000 20.160000 2.900000
v -36.200000 20.160000 2.900000
f 81 82 83
f 81 83 84
f 85 86 87
f 85 87 88
f 81 84 86
f 81 86 85
f 82 88 87
f 82 87 83
f 81 85 88
f 81 88 82
f 84 83 87
f 84 87 86
v -52.300000 -20.160000 2.600000
v -52.300000 -19.760000 2.600000
v -36.200000 -19.760000 2.600000
v -36.200000 -20.160000 2.600000
v -52.300000 -20.160000 2.900000
v -36.200000 -20.160000 2.900000
v -36.200000 -19.760000 2.900000
v -52.300000 -19.760000 2.900000
f 89 90 91
f 89 91 92
f 93 94 95
f 93 95 96
f 89 92 94
f 89 94 93
f 90 96 95
f 90 95 91
f 89 93 96
f 89 96 90
f 92 91 95
f 92 95 94
v -52.300000 19.760000 2.600000
v -52.300000 20.160000 2.600000
v -36.200000 20.160000 2.600000
v -36.200000 19.760000 2.600000
v -52.300000 19.760000 2.900000
v -36.200000 19.760000 2.900000
v -36.200000 20.160000 2.900000
v -52.300000 20.160000 2.900000
f 97 98 99
f 97 99 100
f 101 102 103
f 101 103 104
f 97 100 102
f 97 102 101
f 98 104 103
f 98 103 99
f 97 101 104
f 97 104 98
f 100 99 103
f 100 103 102
v -47.200000 -9.160000 2.600000
v -47.200000 9.160000 2.600000
v -46.800000 9.160000 2.600000
v -46.800000 -9.160000 2.600000
v -47.200000 -9.160000 2.900000
v -46.800000 -9.160000 2.900000
v -46.800000 9.160000 2.900000
v -47.200000 9.160000 2.900000
f 105 106 107
f 105 107 108
f 109 110 111
f 109 111 112
f 105 108 110
f 105 110 109
f 106 112 111
f 106 111 107
f 105 109 112
f 105 112 106
f 108 107 111
f 108 111 110
v -52.300000 -9.160000 2.600000
v -52.300000 -8.760000 2.600000
v -47.200000 -8.760000 2.600000
v -47.200000 -9.160000 2.600000
v -52.300000 -9.160000 2.900000
v -47.200000 -9.160000 2.900000
v -47.200000 -8.760000 2.900000
v -52.300000 -8.760000 2.900000
f 113 114 115
f 113 115 116
f 117 118 119
f 117 119 120
f 113 116 118
f 113 118 117
f 114 120 119
f 114 119 115
f 113 117 120
f 113 120 114
f 116 115 119
f 116 119 118
v -52.300000 8.760000 2.600000
v -52.300000 9.160000 2.600000
v -47.200000 9.160000 2.600000
v -47.200000 8.760000 2.600000
v -52.300000 8.760000 2.900000
v -47.200000 8.760000 2.900000
v -47.200000 9.160000 2.900000
v -52.300000 9.160000 2.900000
f 121 122 123
f 121 123 124
f 125 126 127
f 125 127 128
f 121 124 126
f 121 126 125
f 122 128 127
f 122 127 123
f 121 125 128
f 121 128 122
f 124 123 127
f 124 127 126
v -42.000000 -0.500000 2.600000
v -42.000000 0.500000 2.600000
v -41.000000 0.500000 2.600000
v -41.000000 -0.500000 2.600000
v -42.000000 -0.500000 3.000000
v -41.000000 -0.500000 3.000000
v -41.000000 0.500000 3.000000
v -42.000000 0.500000 3.000000
f 129 130 131
f 129 131 132
f 133 134 135
f 133 135 136
f 129 132 134
f 129 134 133
f 130 136 135
f 130 135 131
f 129 133 136
f 129 136 130
f 132 131 135
f 132 135 134
v 35.800000 -20.160000 2.600000
v 35.800000 20.160000 2.600000
v 36.200000 20.160000 2.600000
v 36.200000 -20.160000 2.600000
v 35.800000 -20.160000 2.900000
v 36.200000 -20.160000 2.900000
v 36.200000 20.160000 2.900000
v 35.800000 20.160000 2.900000
f 137 138 139
f 137 139 140
f 141 142 143
f 141 143 144
f 137 140 142
f 137 142 141
f 138 144 143
f 138 143 139
f 137 141 144
f 137 144 138
f 140 139 143
f 140 143 142
v 36.200000 -20.160000 2.600000
v 36.200000 -19.760000 2.600000
v 52.300000 -19.760000 2.600000
v 52.300000 -20.160000 2.600000
v 36.200000 -20.160000 2.900000
v 52.300000 -20.160000 2.900000
v 52.300000 -19.760000 2.900000
v 36.200000 -19.760000 2.900000
f 145 146 147
f 145 147 148
f 149 150 151
f 149 151 152
f 145 148 150
f 145 150 149
f 146 152 151
f 146 151 147
f 145 149 152
f 145 152 146
f 148 147 151
f 148 151 150
v 36.200000 19.760000 2.600000
v 36.200000 20.160000 2.600000
v 52.300000 20.160000 2.600000
v 52.300000 19.760000 2.600000
v 36.200000 19.760000 2.900000
v 52.300000 19.760000 2.900000
v 52.300000 20.160000 2.900000
v 36.200000 20.160000 2.900000
f 153 154 155
f 153 155 156
f 157 158 159
f 157 159 160
f 153 156 158
f 153 158 157
f 154 160 159
f 154 159 155
f 153 157 160
f 153 160 154
f 156 155 159
f 156 159 158
v 46.800000 -9.160000 2.600000
v 46.800000 9.160000 2.600000
v 47.200000 9.160000 2.600000
v 47.200000 -9.160000 2.600000
v 46.800000 -9.160000 2.900000
v 47.200000 -9.160000 2.900000
v 47.200000 9.160000 2.900000
v 46.800000 9.160000 2.900000
f 161 162 163
f 161 163 164
f 165 166 167
f 165 167 168
f 161 164 166
f 161 166 165
f 162 168 167
f 162 167 163
f 161 165 168
f 161 168 162
f 164 163 167
f 164 167 166
v 47.200000 -9.160000 2.600000
v 47.200000 -8.760000 2.600000
v 52.300000 -8.760000 2.600000
v 52.300000 -9.160000 2.600000
v 47.200000 -9.160000 2.900000
v 52.300000 -9.160000 2.900000
v 52.300000 -8.760000 2.900000
v 47.200000 -8.760000 2.900000
f 169 170 171
f 169 171 172
f 173 174 175
f 173 175 176
f 169 172 174
f 169 174 173
f 170 176 175
f 170 175 171
f 169 173 176
f 169 176 170
f 172 171 175
f 172 175 174
v 47.200000 8.760000 2.600000
v 47.200000 9.160000 2.600000
v 52.300000 9.160000 2.600000
v 52.300000 8.760000 2.600000
v 47.200000 8.760000 2.900000
v 52.300000 8.760000 2.900000
v 52.300000 9.160000 2.900000
v 47.200000 9.160000 2.900000
f 177 178 179
f 177 179 180
f 181 182 183
f 181 183 184
f 177 180 182
f 177 182 181
f 178 184 183
f 178 183 179
f 177 181 184
f 177 184 178
f 180 179 183
f 180 183 182
v 41.000000 -0.500000 2.600000
v 41.000000 0.500000 2.600000
v 42.000000 0.500000 2.600000
v 42.000000 -0.500000 2.600000
v 41.000000 -0.500000 3.000000
v 42.000000 -0.500000 3.000000
v 42.000000 0.500000 3.000000
v 41.000000 0.500000 3.000000
f 185 186 187
f 185 187 188
f 189 190 191
f 189 191 192
f 185 188 190
f 185 190 189
f 186 192 191
f 186 191 187
f 185 189 192
f 185 192 186
f 188 187 191
f 188 191 190
v 10.000000 -1.000000 2.600000
v 10.000000 1.000000 2.600000
v 12.000000 1.000000 2.600000
v 12.000000 -1.000000 2.600000
v 10.000000 -1.000000 2.900000
v 12.000000 -1.000000 2.900000
v 12.000000 1.000000 2.900000
v 10.000000 1.000000 2.900000
f 193 194 195
f 193 195 196
f 197 198 199
f 197 199 200
f 193 196 198
f 193 198 197
f 194 200 199
f 194 199 195
f 193 197 200
f 193 200 194
f 196 195 199
f 196 199 198
v 9.625184 1.847009 2.600000
v 9.625184 3.847009 2.600000
v 11.625184 3.847009 2.600000
v 11.625184 1.847009 2.600000
v 9.625184 1.847009 2.900000
v 11.625184 1.847009 2.900000
v 11.625184 3.847009 2.900000
v 9.625184 3.847009 2.900000
f 201 202 203
f 201 203 204
f 205 206 207
f 205 207 208
f 201 204 206
f 201 206 205
f 202 208 207
f 202 207 203
f 201 205 208
f 201 208 202
f 204 203 207
f 204 207 206
v 8.526279 4.500000 2.600000
v 8.526279 6.500000 2.600000
v 10.526279 6.500000 2.600000
v 10.526279 4.500000 2.600000
v 8.526279 4.500000 2.900000
v 10.526279 4.500000 2.900000
v 10.526279 6.500000 2.900000
v 8.526279 6.500000 2.900000
f 209 210 211
f 209 211 212
f 213 214 215
f 213 215 216
f 209 212 214
f 209 214 213
f 210 216 215
f 210 215 211
f 209 213 216
f 209 216 210
f 212 211 215
f 212 215 214
v 6.778175 6.778175 2.600000
v 6.778175 8.778175 2.600000
v 8.778175 8.778175 2.600000
v 8.778175 6.778175 2.600000
v 6.778175 6.778175 2.900000
v 8.778175 6.778175 2.900000
v 8.778175 8.778175 2.900000
v 6.778175 8.778175 2.900000
f 217 218 219
f 217 219 220
f 221 222 223
f 221 223 224
f 217 220 222
f 217 222 221
f 218 224 223
f 218 223 219
f 217 221 224
f 217 224 218
f 220 219 223
f 220 223 222
v 4.500000 8.526279 2.600000
v 4.500000 10.526279 2.600000
v 6.500000 10.526279 2.600000
v 6.500000 8.526279 2.600000
v 4.500000 8.526279 2.900000
v 6.500000 8.526279 2.900000
v 6.500000 10.526279 2.900000
v 4.500000 10.526279 2.900000
f 225 226 227
f 225 227 228
f 229 230 231
f 229 231 232
f 225 228 230
f 225 230 229
f 226 232 231
f 226 231 227
f 225 229 232
f 225 232 226
f 228 227 231
f 228 231 230
v 1.847009 9.625184 2.600000
v 1.847009 11.625184 2.600000
v 3.847009 11.625184 2.600000
v 3.847009 9.625184 2.600000
v 1.847009 9.625184 2.900000
v 3.847009 9.625184 2.900000
v 3.847009 11.625184 2.900000
v 1.847009 11.625184 2.900000
f 233 234 235
f 233 235 236
f 237 238 239
f 237 239 240
f 233 236 238
f 233 238 237
f 234 240 239
f 234 239 235
f 233 237 240
f 233 240 234
f 236 235 239
f 236 239 238
v -1.000000 10.000000 2.600000
v -1.000000 12.000000 2.600000
v 1.000000 12.000000 2.600000
v 1.000000 10.000000 2.600000
v -1.000000 10.000000 2.900000
v 1.000000 10.000000 2.900000
v 1.000000 12.000000 2.900000
v -1.000000 12.000000 2.900000
f 241 242 243
f 241 243 244
f 245 246 247
f 245 247 248
f 241 244 246
f 241 246 245
f 242 248 247
f 242 247 243
f 241 245 248
f 241 248 242
f 244 243 247
f 244 247 246
v -3.847009 9.625184 2.600000
v -3.847009 11.625184 2.600000
v -1.847009 11.625184 2.600000
v -1.847009 9.625184 2.600000
v -3.847009 9.625184 2.900000
v -1.847009 9.625184 2.900000
v -1.847009 11.625184 2.900000
v -3.847009 11.625184 2.900000
f 249 250 251
f 249 251 252
f 253 254 255
f 253 255 256
f 249 252 254
f 249 254 253
f 250 256 255
f 250 255 251
f 249 253 256
f 249 256 250
f 252 251 255
f 252 255 254
v -6.500000 8.526279 2.600000
v -6.500000 10.526279 2.600000
v -4.500000 10.526279 2.600000
v -4.500000 8.526279 2.600000
v -6.500000 8.526279 2.900000
v -4.500000 8.526279 2.900000
v -4.500000 10.526279 2.900000
v -6.500000 10.526279 2.900000
f 257 258 259
f 257 259 260
f 261 262 263
f 261 263 264
f 257 260 262
f 257 262 261
f 258 264 263
f 258 263 259
f 257 261 264
f 257 264 258
f 260 259 263
f 260 263 262
v -8.778175 6.778175 2.600000
v -8.778175 8.778175 2.600000
v -6.778175 8.778175 2.600000
v -6.778175 6.778175 2.600000
v -8.778175 6.778175 2.900000
v -6.778175 6.778175 2.900000
v -6.778175 8.778175 2.900000
v -8.778175 8.778175 2.900000
f 265 266 267
f 265 267 268
f 269 270 271
f 269 271 272
f 265 268 270
f 265 270 269
f 266 272 271
f 266 271 267
f 265 269 272
f 265 272 266
f 268 267 271
f 268 271 270
v -10.526279 4.500000 2.600000
v -10.526279 6.500000 2.600000
v -8.526279 6.500000 2.600000
v -8.526279 4.500000 2.600000
v -10.526279 4.500000 2.900000
v -8.526279 4.500000 2.900000
v -8.526279 6.500000 2.900000
v -10.526279 6.500000 2.900000
f 273 274 275
f 273 275 276
f 277 278 279
f 277 279 280
f 273 276 278
f 273 278 277
f 274 280 279
f 274 279 275
f 273 277 280
f 273 280 274
f 276 275 279
f 276 279 278
v -11.625184 1.847009 2.600000
v -11.625184 3.847009 2.600000
v -9.625184 3.847009 2.600000
v -9.625184 1.847009 2.600000
v -11.625184 1.847009 2.900000
v -9.625184 1.847009 2.900000
v -9.625184 3.847009 2.900000
v -11.625184 3.847009 2.900000
f 281 282 283
f 281 283 284
f 285 286 287
f 285 287 288
f 281 284 286
f 281 286 285
f 282 288 287
f 282 287 283
f 281 285 288
f 281 288 282
f 284 283 287
f 284 287 286
v -12.000000 -1.000000 2.600000
v -12.000000 1.000000 2.600000
v -10.000000 1.000000 2.600000
v -10.000000 -1.000000 2.600000
v -12.000000 -1.000000 2.900000
v -10.000000 -1.000000 2.900000
v -10.000000 1.000000 2.900000
v -12.000000 1.000000 2.900000
f 289 290 291
f 289 291 292
f 293 294 295
f 293 295 296
f 289 292 294
f 289 294 293
f 290 296 295
f 290 295 291
f 289 293 296
f 289 296 290
f 292 291 295
f 292 295 294
v -11.625184 -3.847009 2.600000
v -11.625184 -1.847009 2.600000
v -9.625184 -1.847009 2.600000
v -9.625184 -3.847009 2.600000
v -11.625184 -3.847009 2.900000
v -9.625184 -3.847009 2.900000
v -9.625184 -1.847009 2.900000
v -11.625184 -1.847009 2.900000
f 297 298 299
f 297 299 300
f 301 302 303
f 301 303 304
f 297 300 302
f 297 302 301
f 298 304 303
f 298 303 299
f 297 301 304
f 297 304 298
f 300 299 303
f 300 303 302
v -10.526279 -6.500000 2.600000
v -10.526279 -4.500000 2.600000
v -8.526279 -4.500000 2.600000
v -8.526279 -6.500000 2.600000
v -10.526279 -6.500000 2.900000
v -8.526279 -6.500000 2.900000
v -8.526279 -4.500000 2.900000
v -10.526279 -4.500000 2.900000
f 305 306 307
f 305 307 308
f 309 310 311
f 309 311 312
f 305 308 310
f 305 310 309
f 306 312 311
f 306 311 307
f 305 309 312
f 305 312 306
f 308 307 311
f 308 311 310
v -8.778175 -8.778175 2.600000
v -8.778175 -6.778175 2.600000
v -6.778175 -6.778175 2.600000
v -6.778175 -8.778175 2.600000
v -8.778175 -8.778175 2.900000
v -6.778175 -8.778175 2.900000
v -6.778175 -6.778175 2.900000
v -8.778175 -6.778175 2.900000
f 313 314 315
f 313 315 316
f 317 318 319
f 317 319 320
f 313 316 318
f 313 318 317
f 314 320 319
f 314 319 315
f 313 317 320
f 313 320 314
f 316 315 319
f 316 319 318
v -6.500000 -10.526279 2.600000
v -6.500000 -8.526279 2.600000
v -4.500000 -8.526279 2.600000
v -4.500000 -10.526279 2.600000
v -6.500000 -10.526279 2.900000
v -4.500000 -10.526279 2.900000
v -4.500000 -8.526279 2.900000
v -6.500000 -8.526279 2.900000
f 321 322 323
f 321 323 324
f 325 326 327
f 325 327 328
f 321 324 326
f 321 326 325
f 322 328 327
f 322 327 323
f 321 325 328
f 321 328 322
f 324 323 327
f 324 327 326
v -3.847009 -11.625184 2.600000
v -3.847009 -9.625184 2.600000
v -1.847009 -9.625184 2.600000
v -1.847009 -11.625184 2.600000
v -3.847009 -11.625184 2.900000
v -1.847009 -11.625184 2.900000
v -1.847009 -9.625184 2.900000
v -3.847009 -9.625184 2.900000
f 329 330 331
f 329 331 332
f 333 334 335
f 333 335 336
f 329 332 334
f 329 334 333
f 330 336 335
f 330 335 331
f 329 333 336
f 329 336 330
f 332 331 335
f 332 335 334
v -1.000000 -12.000000 2.600000
v -1.000000 -10.000000 2.600000
v 1.000000 -10.000000 2.600000
v 1.000000 -12.000000 2.600000
v -1.000000 -12.000000 2.900000
v 1.000000 -12.000000 2.900000
v 1.000000 -10.000000 2.900000
v -1.000000 -10.000000 2.900000
f 337 338 339
f 337 339 340
f 341 342 343
f 341 343 344
f 337 340 342
f 337 342 341
f 338 344 343
f 338 343 339
f 337 341 344
f 337 344 338
f 340 339 343
f 340 343 342
v 1.847009 -11.625184 2.600000
v 1.847009 -9.625184 2.600000
v 3.847009 -9.625184 2.600000
v 3.847009 -11.625184 2.600000
v 1.847009 -11.625184 2.900000
v 3.847009 -11.625184 2.900000
v 3.847009 -9.625184 2.900000
v 1.847009 -9.625184 2.900000
f 345 346 347
f 345 347 348
f 349 350 351
f 349 351 352
f 345 348 350
f 345 350 349
f 346 352 351
f 346 351 347
f 345 349 352
f 345 352 346
f 348 347 351
f 348 351 350
v 4.500000 -10.526279 2.600000
v 4.500000 -8.526279 2.600000
v 6.500000 -8.526279 2.600000
v 6.500000 -10.526279 2.600000
v 4.500000 -10.526279 2.900000
v 6.500000 -10.526279 2.900000
v 6.500000 -8.526279 2.900000
v 4.500000 -8.526279 2.900000
f 353 354 355
f 353 355 356
f 357 358 359
f 357 359 360
f 353 356 358
f 353 358 357
f 354 360 359
f 354 359 355
f 353 357 360
f 353 360 354
f 356 355 359
f 356 359 358
v 6.778175 -8.778175 2.600000
v 6.778175 -6.778175 2.600000
v 8.778175 -6.778175 2.600000
v 8.778175 -8.778175 2.600000
v 6.778175 -8.778175 2.900000
v 8.778175 -8.778175 2.900000
v 8.778175 -6.778175 2.900000
v 6.778175 -6.778175 2.900000
f 361 362 363
f 361 363 364
f 365 366 367
f 365 367 368
f 361 364 366
f 361 366 365
f 362 368 367
f 362 367 363
f 361 365 368
f 361 368 362
f 364 363 367
f 364 367 366
v 8.526279 -6.500000 2.600000
v 8.526279 -4.500000 2.600000
v 10.526279 -4.500000 2.600000
v 10.526279 -6.500000 2.600000
v 8.526279 -6.500000 2.900000
v 10.526279 -6.500000 2.900000
v 10.526279 -4.500000 2.900000
v 8.526279 -4.500000 2.900000
f 369 370 371
f 369 371 372
f 373 374 375
f 373 375 376
f 369 372 374
f 369 374 373
f 370 376 375
f 370 375 371
f 369 373 376
f 369 376 370
f 372 371 375
f 372 375 374
v 9.625184 -3.847009 2.600000
v 9.625184 -1.847009 2.600000
v 11.625184 -1.847009 2.600000
v 11.625184 -3.847009 2.600000
v 9.625184 -3.847009 2.900000
v 11.625184 -3.847009 2.900000
v 11.625184 -1.847009 2.900000
v 9.625184 -1.847009 2.900000
f 377 378 379
f 377 379 380
f 381 382 383
f 381 383 384
f 377 380 382
f 377 382 381
f 378 384 383
f 378 383 379
f 377 381 384
f 377 384 378
f 380 379 383
f 380 383 382
v -52.800000 -3.960000 5.200000
v -52.800000 -3.360000 5.200000
v -52.200000 -3.360000 5.200000
v -52.200000 -3.960000 5.200000
v -52.800000 -3.960000 7.200000
v -52.200000 -3.960000 7.200000
v -52.200000 -3.360000 7.200000
v -52.800000 -3.360000 7.200000
f 385 386 387
f 385 387 388
f 389 390 391
f 389 391 392
f 385 388 390
f 385 390 389
f 386 392 391
f 386 391 387
f 385 389 392
f 385 392 386
f 388 387 391
f 388 391 390
v -52.800000 3.360000 5.200000
v -52.800000 3.960000 5.200000
v -52.200000 3.960000 5.200000
v -52.200000 3.360000 5.200000
v -52.800000 3.360000 7.200000
v -52.200000 3.360000 7.200000
v -52.200000 3.960000 7.200000
v -52.800000 3.960000 7.200000
f 393 394 395
f 393 395 396
f 397 398 399
f 397 399 400
f 393 396 398
f 393 398 397
f 394 400 399
f 394 399 395
f 393 397 400
f 393 400 394
f 396 395 399
f 396 399 398
v -52.800000 -3.960000 4.600000
v -52.800000 3.960000 4.600000
v -52.200000 3.960000 4.600000
v -52.200000 -3.960000 4.600000
v -52.800000 -3.960000 5.200000
v -52.200000 -3.960000 5.200000
v -52.200000 3.960000 5.200000
v -52.800000 3.960000 5.200000
f 401 402 403
f 401 403 404
f 405 406 407
f 405 407 408
f 401 404 406
f 401 406 405
f 402 408 407
f 402 407 403
f 401 405 408
f 401 408 402
f 404 403 407
f 404 407 406
v -54.650000 -3.660000 2.600000
v -54.650000 3.660000 2.600000
v -54.350000 3.660000 2.600000
v -54.350000 -3.660000 2.600000
v -54.650000 -3.660000 6.600000
v -54.350000 -3.660000 6.600000
v -54.350000 3.660000 6.600000
v -54.650000 3.660000 6.600000
f 409 410 411
f 409 411 412
f 413 414 415
f 413 415 416
f 409 412 414
f 409 414 413
f 410 416 415
f 410 415 411
f 409 413 416
f 409 416 410
f 412 411 415
f 412 415 414
v -54.500000 -3.660000 6.600000
v -54.500000 3.660000 6.600000
v -52.500000 3.660000 6.600000
v -52.500000 -3.660000 6.600000
v -54.500000 -3.660000 6.900000
v -52.500000 -3.660000 6.900000
v -52.500000 3.660000 6.900000
v -54.500000 3.660000 6.900000
f 417 418 419
f 417 419 420
f 421 422 423
f 421 423 424
f 417 420 422
f 417 422 421
f 418 424 423
f 418 423 419
f 417 421 424
f 417 424 418
f 420 419 423
f 420 423 422
v 52.200000 -3.960000 5.200000
v 52.200000 -3.360000 5.200000
v 52.800000 -3.360000 5.200000
v 52.800000 -3.960000 5.200000
v 52.200000 -3.960000 7.200000
v 52.800000 -3.960000 7.200000
v 52.800000 -3.360000 7.200000
v 52.200000 -3.360000 7.200000
f 425 426 427
f 425 427 428
f 429 430 431
f 429 431 432
f 425 428 430
f 425 430 429
f 426 432 431
f 426 431 427
f 425 429 432
f 425 432 426
f 428 427 431
f 428 431 430
v 52.200000 3.360000 5.200000
v 52.200000 3.960000 5.200000
v 52.800000 3.960000 5.200000
v 52.800000 3.360000 5.200000
v 52.200000 3.360000 7.200000
v 52.800000 3.360000 7.200000
v 52.800000 3.960000 7.200000
v 52.200000 3.960000 7.200000
f 433 434 435
f 433 435 436
f 437 438 439
f 437 439 440
f 433 436 438
f 433 438 437
f 434 440 439
f 434 439 435
f 433 437 440
f 433 440 434
f 436 435 439
f 436 439 438
v 52.200000 -3.960000 4.600000
v 52.200000 3.960000 4.600000
v 52.800000 3.960000 4.600000
v 52.800000 -3.960000 4.600000
v 52.200000 -3.960000 5.200000
v 52.800000 -3.960000 5.200000
v 52.800000 3.960000 5.200000
v 52.200000 3.960000 5.200000
f 441 442 443
f 441 443 444
f 445 446 447
f 445 447 448
f 441 444 446
f 441 446 445
f 442 448 447
f 442 447 443
f 441 445 448
f 441 448 442
f 444 443 447
f 444 447 446
v 54.350000 -3.660000 2.600000
v 54.350000 3.660000 2.600000
v 54.650000 3.660000 2.600000
v 54.650000 -3.660000 2.600000
v 54.350000 -3.660000 6.600000
v 54.650000 -3.660000 6.600000
v 54.650000 3.660000 6.600000
v 54.350000 3.660000 6.600000
f 449 450 451
f 449 451 452
f 453 454 455
f 453 455 456
f 449 452 454
f 449 454 453
f 450 456 455
f 450 455 451
f 449 453 456
f 449 456 450
f 452 451 455
f 452 455 454
v 52.500000 -3.660000 6.600000
v 52.500000 3.660000 6.600000
v 54.500000 3.660000 6.600000
v 54.500000 -3.660000 6.600000
v 52.500000 -3.660000 6.900000
v 54.500000 -3.660000 6.900000
v 54.500000 3.660000 6.900000
v 52.500000 3.660000 6.900000
f 457 458 459
f 457 459 460
f 461 462 463
f 461 463 464
f 457 460 462
f 457 462 461
f 458 464 463
f 458 463 459
f 457 461 464
f 457 464 458
f 460 459 463
f 460 463 462
v -55.000000 -41.500000 0.000000
v -55.000000 -36.500000 0.000000
v 55.000000 -36.500000 0.000000
v 55.000000 -41.500000 0.000000
v -55.000000 -41.500000 6.000000
v 55.000000 -41.500000 6.000000
v 55.000000 -36.500000 6.000000
v -55.000000 -36.500000 6.000000
f 465 466 467
f 465 467 468
f 469 470 471
f 469 471 472
f 465 468 470
f 465 470 469
f 466 472 471
f 466 471 467
f 465 469 472
f 465 472 466
f 468 467 471
f 468 471 470
v -55.000000 -46.500000 0.000000
v -55.000000 -41.500000 0.000000
v 55.000000 -41.500000 0.000000
v 55.000000 -46.500000 0.000000
v -55.000000 -46.500000 10.000000
v 55.000000 -46.500000 10.000000
v 55.000000 -41.500000 10.000000
v -55.000000 -41.500000 10.000000
f 473 474 475
f 473 475 476
f 477 478 479
f 477 479 480
f 473 476 478
f 473 478 477
f 474 480 479
f 474 479 475
f 473 477 480
f 473 480 474
f 476 475 479
f 476 479 478
v -55.000000 -51.500000 0.000000
v -55.000000 -46.500000 0.000000
v 55.000000 -46.500000 0.000000
v 55.000000 -51.500000 0.000000
v -55.000000 -51.500000 14.000000
v 55.000000 -51.500000 14.000000
v 55.000000 -46.500000 14.000000
v -55.000000 -46.500000 14.000000
f 481 482 483
f 481 483 484
f 485 486 487
f 485 487 488
f 481 484 486
f 481 486 485
f 482 488 487
f 482 487 483
f 481 485 488
f 481 488 482
f 484 483 487
f 484 487 486
v -55.000000 -56.500000 0.000000
v -55.000000 -51.500000 0.000000
v 55.000000 -51.500000 0.000000
v 55.000000 -56.500000 0.000000
v -55.000000 -56.500000 18.000000
v 55.000000 -56.500000 18.000000
v 55.000000 -51.500000 18.000000
v -55.000000 -51.500000 18.000000
f 489 490 491
f 489 491 492
f 493 494 495
f 493 495 496
f 489 492 494
f 489 494 493
f 490 496 495
f 490 495 491
f 489 493 496
f 489 496 490
f 492 491 495
f 492 495 494
v -55.000000 36.500000 0.000000
v -55.000000 41.500000 0.000000
v 55.000000 41.500000 0.000000
v 55.000000 36.500000 0.000000
v -55.000000 36.500000 6.000000
v 55.000000 36.500000 6.000000
v 55.000000 41.500000 6.000000
v -55.000000 41.500000 6.000000
f 497 498 499
f 497 499 500
f 501 502 503
f 501 503 504
f 497 500 502
f 497 502 501
f 498 504 503
f 498 503 499
f 497 501 504
f 497 504 498
f 500 499 503
f 500 503 502
v -55.000000 41.500000 0.000000
v -55.000000 46.500000 0.000000
v 55.000000 46.500000 0.000000
v 55.000000 41.500000 0.000000
v -55.000000 41.500000 10.000000
v 55.000000 41.500000 10.000000
v 55.000000 46.500000 10.000000
v -55.000000 46.500000 10.000000
f 505 506 507
f 505 507 508
f 509 510 511
f 509 511 512
f 505 508 510
f 505 510 509
f 506 512 511
f 506 511 507
f 505 509 512
f 505 512 506
f 508 507 511
f 508 511 510
v -55.000000 46.500000 0.000000
v -55.000000 51.500000 0.000000
v 55.000000 51.500000 0.000000
v 55.000000 46.500000 0.000000
v -55.000000 46.500000 14.000000
v 55.000000 46.500000 14.000000
v 55.000000 51.500000 14.000000
v -55.000000 51.500000 14.000000
f 513 514 515
f 513 515 516
f 517 518 519
f 517 519 520
f 513 516 518
f 513 518 517
f 514 520 519
f 514 519 515
f 513 517 520
f 513 520 514
f 516 515 519
f 516 519 518
v -55.000000 51.500000 0.000000
v -55.000000 56.500000 0.000000
v 55.000000 56.500000 0.000000
v 55.000000 51.500000 0.000000
v -55.000000 51.500000 18.000000
v 55.000000 51.500000 18.000000
v 55.000000 56.500000 18.000000
v -55.000000 56.500000 18.000000
f 521 522 523
f 521 523 524
f 525 526 527
f 525 527 528
f 521 524 526
f 521 526 525
f 522 528 527
f 522 527 523
f 521 525 528
f 521 528 522
f 524 523 527
f 524 527 526
v 58.500000 -35.000000 0.000000
v 58.500000 35.000000 0.000000
v 63.500000 35.000000 0.000000
v 63.500000 -35.000000 0.000000
v 58.500000 -35.000000 6.000000
v 63.500000 -35.000000 6.000000
v 63.500000 35.000000 6.000000
v 58.500000 35.000000 6.000000
f 529 530 531
f 529 531 532
f 533 534 535
f 533 535 536
f 529 532 534
f 529 534 533
f 530 536 535
f 530 535 531
f 529 533 536
f 529 536 530
f 532 531 535
f 532 535 534
v 63.500000 -35.000000 0.000000
v 63.500000 35.000000 0.000000
v 68.500000 35.000000 0.000000
v 68.500000 -35.000000 0.000000
v 63.500000 -35.000000 10.000000
v 68.500000 -35.000000 10.000000
v 68.500000 35.000000 10.000000
v 63.500000 35.000000 10.000000
f 537 538 539
f 537 539 540
f 541 542 543
f 541 543 544
f 537 540 542
f 537 542 541
f 538 544 543
f 538 543 539
f 537 541 544
f 537 544 538
f 540 539 543
f 540 543 542
v 68.500000 -35.000000 0.000000
v 68.500000 35.000000 0.000000
v 73.500000 35.000000 0.000000
v 73.500000 -35.000000 0.000000
v 68.500000 -35.000000 14.000000
v 73.500000 -35.000000 14.000000
v 73.500000 35.000000 14.000000
v 68.500000 35.000000 14.000000
f 545 546 547
f 545 547 548
f 549 550 551
f 549 551 552
f 545 548 550
f 545 550 549
f 546 552 551
f 546 551 547
f 545 549 552
f 545 552 546
f 548 547 551
f 548 551 550
v 73.500000 -35.000000 0.000000
v 73.500000 35.000000 0.000000
v 78.500000 35.000000 0.000000
v 78.500000 -35.000000 0.000000
v 73.500000 -35.000000 18.000000
v 78.500000 -35.000000 18.000000
v 78.500000 35.000000 18.000000
v 73.500000 35.000000 18.000000
f 553 554 555
f 553 555 556
f 557 558 559
f 557 559 560
f 553 556 558
f 553 558 557
f 554 560 559
f 554 559 555
f 553 557 560
f 553 560 554
f 556 555 559
f 556 559 558
v -63.500000 -35.000000 0.000000
v -63.500000 35.000000 0.000000
v -58.500000 35.000000 0.000000
v -58.500000 -35.000000 0.000000
v -63.500000 -35.000000 6.000000
v -58.500000 -35.000000 6.000000
v -58.500000 35.000000 6.000000
v -63.500000 35.000000 6.000000
f 561 562 563
f 561 563 564
f 565 566 567
f 565 567 568
f 561 564 566
f 561 566 565
f 562 568 567
f 562 567 563
f 561 565 568
f 561 568 562
f 564 563 567
f 564 567 566
v -68.500000 -35.000000 0.000000
v -68.500000 35.000000 0.000000
v -63.500000 35.000000 0.000000
v -63.500000 -35.000000 0.000000
v -68.500000 -35.000000 10.000000
v -63.500000 -35.000000 10.000000
v -63.500000 35.000000 10.000000
v -68.500000 35.000000 10.000000
f 569 570 571
f 569 571 572
f 573 574 575
f 573 575 576
f 569 572 574
f 569 574 573
f 570 576 575
f 570 575 571
f 569 573 576
f 569 576 570
f 572 571 575
f 572 575 574
v -73.500000 -35.000000 0.000000
v -73.500000 35.000000 0.000000
v -68.500000 35.000000 0.000000
v -68.500000 -35.000000 0.000000
v -73.500000 -35.000000 14.000000
v -68.500000 -35.000000 14.000000
v -68.500000 35.000000 14.000000
v -73.500000 35.000000 14.000000
f 577 578 579
f 577 579 580
f 581 582 583
f 581 583 584
f 577 580 582
f 577 582 581
f 578 584 583
f 578 583 579
f 577 581 584
f 577 584 578
f 580 579 583
f 580 583 582
v -78.500000 -35.000000 0.000000
v -78.500000 35.000000 0.000000
v -73.500000 35.000000 0.000000
v -73.500000 -35.000000 0.000000
v -78.500000 -35.000000 18.000000
v -73.500000 -35.000000 18.000000
v -73.500000 35.000000 18.000000
v -78.500000 35.000000 18.000000
f 585 586 587
f 585 587 588
f 589 590 591
f 589 591 592
f 585 588 590
f 585 590 589
f 586 592 591
f 586 591 587
f 585 589 592
f 585 592 586
f 588 587 591
f 588 591 590
v -55.000000 -40.600000 6.000000
v -55.000000 -37.400000 6.000000
v -27.500000 -37.400000 6.000000
v -27.500000 -40.600000 6.000000
v -55.000000 -40.600000 7.600000
v -27.500000 -40.600000 7.600000
v -27.500000 -37.400000 7.600000
v -55.000000 -37.400000 7.600000
f 593 594 595
f 593 595 596
f 597 598 599
f 597 599 600
f 593 596 598
f 593 598 597
f 594 600 599
f 594 599 595
f 593 597 600
f 593 600 594
f 596 595 599
f 596 599 598
v -27.500000 -40.600000 6.000000
v -27.500000 -37.400000 6.000000
v 0.000000 -37.400000 6.000000
v 0.000000 -40.600000 6.000000
v -27.500000 -40.600000 7.600000
v 0.000000 -40.600000 7.600000
v 0.000000 -37.400000 7.600000
v -27.500000 -37.400000 7.600000
f 601 602 603
f 601 603 604
f 605 606 607
f 605 607 608
f 601 604 606
f 601 606 605
f 602 608 607
f 602 607 603
f 601 605 608
f 601 608 602
f 604 603 607
f 604 607 606
v 0.000000 -40.600000 6.000000
v 0.000000 -37.400000 6.000000
v 27.500000 -37.400000 6.000000
v 27.500000 -40.600000 6.000000
v 0.000000 -40.600000 7.600000
v 27.500000 -40.600000 7.600000
v 27.500000 -37.400000 7.600000
v 0.000000 -37.400000 7.600000
f 609 610 611
f 609 611 612
f 613 614 615
f 613 615 616
f 609 612 614
f 609 614 613
f 610 616 615
f 610 615 611
f 609 613 616
f 609 616 610
f 612 611 615
f 612 615 614
v 27.500000 -40.600000 6.000000
v 27.500000 -37.400000 6.000000
v 55.000000 -37.400000 6.000000
v 55.000000 -40.600000 6.000000
v 27.500000 -40.600000 7.600000
v 55.000000 -40.600000 7.600000
v 55.000000 -37.400000 7.600000
v 27.500000 -37.400000 7.600000
f 617 618 619
f 617 619 620
f 621 622 623
f 621 623 624
f 617 620 622
f 617 622 621
f 618 624 623
f 618 623 619
f 617 621 624
f 617 624 618
f 620 619 623
f 620 623 622
v -55.000000 -45.600000 10.000000
v -55.000000 -42.400000 10.000000
v -27.500000 -42.400000 10.000000
v -27.500000 -45.600000 10.000000
v -55.000000 -45.600000 11.600000
v -27.500000 -45.600000 11.600000
v -27.500000 -42.400000 11.600000
v -55.000000 -42.400000 11.600000
f 625 626 627
f 625 627 628
f 629 630 631
f 629 631 632
f 625 628 630
f 625 630 629
f 626 632 631
f 626 631 627
f 625 629 632
f 625 632 626
f 628 627 631
f 628 631 630
v -27.500000 -45.600000 10.000000
v -27.500000 -42.400000 10.000000
v 0.000000 -42.400000 10.000000
v 0.000000 -45.600000 10.000000
v -27.500000 -45.600000 11.600000
v 0.000000 -45.600000 11.600000
v 0.000000 -42.400000 11.600000
v -27.500000 -42.400000 11.600000
f 633 634 635
f 633 635 636
f 637 638 639
f 637 639 640
f 633 636 638
f 633 638 637
f 634 640 639
f 634 639 635
f 633 637 640
f 633 640 634
f 636 635 639
f 636 639 638
v 0.000000 -45.600000 10.000000
v 0.000000 -42.400000 10.000000
v 27.500000 -42.400000 10.000000
v 27.500000 -45.600000 10.000000
v 0.000000 -45.600000 11.600000
v 27.500000 -45.600000 11.600000
v 27.500000 -42.400000 11.600000
v 0.000000 -42.400000 11.600000
f 641 642 643
f 641 643 644
f 645 646 647
f 645 647 648
f 641 644 646
f 641 646 645
f 642 648 647
f 642 647 643
f 641 645 648
f 641 648 642
f 644 643 647
f 644 647 646
v 27.500000 -45.600000 10.000000
v 27.500000 -42.400000 10.000000
v 55.000000 -42.400000 10.000000
v 55.000000 -45.600000 10.000000
v 27.500000 -45.600000 11.600000
v 55.000000 -45.600000 11.600000
v 55.000000 -42.400000 11.600000
v 27.500000 -42.400000 11.600000
f 649 650 651
f 649 651 652
f 653 654 655
f 653 655 656
f 649 652 654
f 649 654 653
f 650 656 655
f 650 655 651
f 649 653 656
f 649 656 650
f 652 651 655
f 652 655 654
v -55.000000 -50.600000 14.000000
v -55.000000 -47.400000 14.000000
v -27.500000 -47.400000 14.000000
v -27.500000 -50.600000 14.000000
v -55.000000 -50.600000 15.600000
v -27.500000 -50.600000 15.600000
v -27.500000 -47.400000 15.600000
v -55.000000 -47.400000 15.600000
f 657 658 659
f 657 659 660
f 661 662 663
f 661 663 664
f 657 660 662
f 657 662 661
f 658 664 663
f 658 663 659
f 657 661 664
f 657 664 658
f 660 659 663
f 660 663 662
v -27.500000 -50.600000 14.000000
v -27.500000 -47.400000 14.000000
v 0.000000 -47.400000 14.000000
v 0.000000 -50.600000 14.000000
v -27.500000 -50.600000 15.600000
v 0.000000 -50.600000 15.600000
v 0.000000 -47.400000 15.600000
v -27.500000 -47.400000 15.600000
f 665 666 667
f 665 667 668
f 669 670 671
f 669 671 672
f 665 668 670
f 665 670 669
f 666 672 671
f 666 671 667
f 665 669 672
f 665 672 666
f 668 667 671
f 668 671 670
v 0.000000 -50.600000 14.000000
v 0.000000 -47.400000 14.000000
v 27.500000 -47.400000 14.000000
v 27.500000 -50.600000 14.000000
v 0.000000 -50.600000 15.600000
v 27.500000 -50.600000 15.600000
v 27.500000 -47.400000 15.600000
v 0.000000 -47.400000 15.600000
f 673 674 675
f 673 675 676
f 677 678 679
f 677 679 680
f 673 676 678
f 673 678 677
f 674 680 679
f 674 679 675
f 673 677 680
f 673 680 674
f 676 675 679
f 676 679 678
v 27.500000 -50.600000 14.000000
v 27.500000 -47.400000 14.000000
v 55.000000 -47.400000 14.000000
v 55.000000 -50.600000 14.000000
v 27.500000 -50.600000 15.600000
v 55.000000 -50.600000 15.600000
v 55.000000 -47.400000 15.600000
v 27.500000 -47.400000 15.600000
f 681 682 683
f 681 683 684
f 685 686 687
f 685 687 688
f 681 684 686
f 681 686 685
f 682 688 687
f 682 687 683
f 681 685 688
f 681 688 682
f 684 683 687
f 684 687 686
v -55.000000 -55.600000 18.000000
v -55.000000 -52.400000 18.000000
v -27.500000 -52.400000 18.000000
v -27.500000 -55.600000 18.000000
v -55.000000 -55.600000 19.600000
v -27.500000 -55.600000 19.600000
v -27.500000 -52.400000 19.600000
v -55.000000 -52.400000 19.600000
f 689 690 691
f 689 691 692
f 693 694 695
f 693 695 696
f 689 692 694
f 689 694 693
f 690 696 695
f 690 695 691
f 689 693 696
f 689 696 690
f 692 691 695
f 692 695 694
v -27.500000 -55.600000 18.000000
v -27.500000 -52.400000 18.000000
v 0.000000 -52.400000 18.000000
v 0.000000 -55.600000 18.000000
v -27.500000 -55.600000 19.600000
v 0.000000 -55.600000 19.600000
v 0.000000 -52.400000 19.600000
v -27.500000 -52.400000 19.600000
f 697 698 699
f 697 699 700
f 701 702 703
f 701 703 704
f 697 700 702
f 697 702 701
f 698 704 703
f 698 703 699
f 697 701 704
f 697 704 698
f 700 699 703
f 700 703 702
v 0.000000 -55.600000 18.000000
v 0.000000 -52.400000 18.000000
v 27.500000 -52.400000 18.000000
v 27.500000 -55.600000 18.000000
v 0.000000 -55.600000 19.600000
v 27.500000 -55.600000 19.600000
v 27.500000 -52.400000 19.600000
v 0.000000 -52.400000 19.600000
f 705 706 707
f 705 707 708
f 709 710 711
f 709 711 712
f 705 708 710
f 705 710 709
f 706 712 711
f 706 711 707
f 705 709 712
f 705 712 706
f 708 707 711
f 708 711 710
v 27.500000 -55.600000 18.000000
v 27.500000 -52.400000 18.000000
v 55.000000 -52.400000 18.000000
v 55.000000 -55.600000 18.000000
v 27.500000 -55.600000 19.600000
v 55.000000 -55.600000 19.600000
v 55.000000 -52.400000 19.600000
v 27.500000 -52.400000 19.600000
f 713 714 715
f 713 715 716
f 717 718 719
f 717 719 720
f 713 716 718
f 713 718 717
f 714 720 719
f 714 719 715
f 713 717 720
f 713 720 714
f 716 715 719
f 716 719 718
v -55.000000 37.400000 6.000000
v -55.000000 40.600000 6.000000
v -27.500000 40.600000 6.000000
v -27.500000 37.400000 6.000000
v -55.000000 37.400000 7.600000
v -27.500000 37.400000 7.600000
v -27.500000 40.600000 7.600000
v -55.000000 40.600000 7.600000
f 721 722 723
f 721 723 724
f 725 726 727
f 725 727 728
f 721 724 726
f 721 726 725
f 722 728 727
f 722 727 723
f 721 725 728
f 721 728 722
f 724 723 727
f 724 727 726
v -27.500000 37.400000 6.000000
v -27.500000 40.600000 6.000000
v 0.000000 40.600000 6.000000
v 0.000000 37.400000 6.000000
v -27.500000 37.400000 7.600000
v 0.000000 37.400000 7.600000
v 0.000000 40.600000 7.600000
v -27.500000 40.600000 7.600000
f 729 730 731
f 729 731 732
f 733 734 735
f 733 735 736
f 729 732 734
f 729 734 733
f 730 736 735
f 730 735 731
f 729 733 736
f 729 736 730
f 732 731 735
f 732 735 734
v 0.000000 37.400000 6.000000
v 0.000000 40.600000 6.000000
v 27.500000 40.600000 6.000000
v 27.500000 37.400000 6.000000
v 0.000000 37.400000 7.600000
v 27.500000 37.400000 7.600000
v 27.500000 40.600000 7.600000
v 0.000000 40.600000 7.600000
f 737 738 739
f 737 739 740
f 741 742 743
f 741 743 744
f 737 740 742
f 737 742 741
f 738 744 743
f 738 743 739
f 737 741 744
f 737 744 738
f 740 739 743
f 740 743 742
v 27.500000 37.400000 6.000000
v 27.500000 40.600000 6.000000
v 55.000000 40.600000 6.000000
v 55.000000 37.400000 6.000000
v 27.500000 37.400000 7.600000
v 55.000000 37.400000 7.600000
v 55.000000 40.600000 7.600000
v 27.500000 40.600000 7.600000
f 745 746 747
f 745 747 748
f 749 750 751
f 749 751 752
f 745 748 750
f 745 750 749
f 746 752 751
f 746 751 747
f 745 749 752
f 745 752 746
f 748 747 751
f 748 751 750
v -55.000000 42.400000 10.000000
v -55.000000 45.600000 10.000000
v -27.500000 45.600000 10.000000
v -27.500000 42.400000 10.000000
v -55.000000 42.400000 11.600000
v -27.500000 42.400000 11.600000
v -27.500000 45.600000 11.600000
v -55.000000 45.600000 11.600000
f 753 754 755
f 753 755 756
f 757 758 759
f 757 759 760
f 753 756 758
f 753 758 757
f 754 760 759
f 754 759 755
f 753 757 760
f 753 760 754
f 756 755 759
f 756 759 758
v -27.500000 42.400000 10.000000
v -27.500000 45.600000 10.000000
v 0.000000 45.600000 10.000000
v 0.000000 42.400000 10.000000
v -27.500000 42.400000 11.600000
v 0.000000 42.400000 11.600000
v 0.000000 45.600000 11.600000
v -27.500000 45.600000 11.600000
f 761 762 763
f 761 763 764
f 765 766 767
f 765 767 768
f 761 764 766
f 761 766 765
f 762 768 767
f 762 767 763
f 761 765 768
f 761 768 762
f 764 763 767
f 764 767 766
v 0.000000 42.400000 10.000000
v 0.000000 45.600000 10.000000
v 27.500000 45.600000 10.000000
v 27.500000 42.400000 10.000000
v 0.000000 42.400000 11.600000
v 27.500000 42.400000 11.600000
v 27.500000 45.600000 11.600000
v 0.000000 45.600000 11.600000
f 769 770 771
f 769 771 772
f 773 774 775
f 773 775 776
f 769 772 774
f 769 774 773
f 770 776 775
f 770 775 771
f 769 773 776
f 769 776 770
f 772 771 775
f 772 775 774
v 27.500000 42.400000 10.000000
v 27.500000 45.600000 10.000000
v 55.000000 45.600000 10.000000
v 55.000000 42.400000 10.000000
v 27.500000 42.400000 11.600000
v 55.000000 42.400000 11.600000
v 55.000000 45.600000 11.600000
v 27.500000 45.600000 11.600000
f 777 778 779
f 777 779 780
f 781 782 783
f 781 783 784
f 777 780 782
f 777 782 781
f 778 784 783
f 778 783 779
f 777 781 784
f 777 784 778
f 780 779 783
f 780 783 782
v -55.000000 47.400000 14.000000
v -55.000000 50.600000 14.000000
v -27.500000 50.600000 14.000000
v -27.500000 47.400000 14.000000
v -55.000000 47.400000 15.600000
v -27.500000 47.400000 15.600000
v -27.500000 50.600000 15.600000
v -55.000000 50.600000 15.600000
f 785 786 787
f 785 787 788
f 789 790 791
f 789 791 792
f 785 788 790
f 785 790 789
f 786 792 791
f 786 791 787
f 785 789 792
f 785 792 786
f 788 787 791
f 788 791 790
v -27.500000 47.400000 14.000000
v -27.500000 50.600000 14.000000
v 0.000000 50.600000 14.000000
v 0.000000 47.400000 14.000000
v -27.500000 47.400000 15.600000
v 0.000000 47.400000 15.600000
v 0.000000 50.600000 15.600000
v -27.500000 50.600000 15.600000
f 793 794 795
f 793 795 796
f 797 798 799
f 797 799 800
f 793 796 798
f 793 798 797
f 794 800 799
f 794 799 795
f 793 797 800
f 793 800 794
f 796 795 799
f 796 799 798
v 0.000000 47.400000 14.000000
v 0.000000 50.600000 14.000000
v 27.500000 50.600000 14.000000
v 27.500000 47.400000 14.000000
v 0.000000 47.400000 15.600000
v 27.500000 47.400000 15.600000
v 27.500000 50.600000 15.600000
v 0.000000 50.600000 15.600000
f 801 802 803
f 801 803 804
f 805 806 807
f 805 807 808
f 801 804 806
f 801 806 805
f 802 808 807
f 802 807 803
f 801 805 808
f 801 808 802
f 804 803 807
f 804 807 806
v 27.500000 47.400000 14.000000
v 27.500000 50.600000 14.000000
v 55.000000 50.600000 14.000000
v 55.000000 47.400000 14.000000
v 27.500000 47.400000 15.600000
v 55.000000 47.400000 15.600000
v 55.000000 50.600000 15.600000
v 27.500000 50.600000 15.600000
f 809 810 811
f 809 811 812
f 813 814 815
f 813 815 816
f 809 812 814
f 809 814 813
f 810 816 815
f 810 815 811
f 809 813 816
f 809 816 810
f 812 811 815
f 812 815 814
v -55.000000 52.400000 18.000000
v -55.000000 55.600000 18.000000
v -27.500000 55.600000 18.000000
v -27.500000 52.400000 18.000000
v -55.000000 52.400000 19.600000
v -27.500000 52.400000 19.600000
v -27.500000 55.600000 19.600000
v -55.000000 55.600000 19.600000
f 817 818 819
f 817 819 820
f 821 822 823
f 821 823 824
f 817 820 822
f 817 822 821
f 818 824 823
f 818 823 819
f 817 821 824
f 817 824 818
f 820 819 823
f 820 823 822
v -27.500000 52.400000 18.000000
v -27.500000 55.600000 18.000000
v 0.000000 55.600000 18.000000
v 0.000000 52.400000 18.000000
v -27.500000 52.400000 19.600000
v 0.000000 52.400000 19.600000
v 0.000000 55.600000 19.600000
v -27.500000 55.600000 19.600000
f 825 826 827
f 825 827 828
f 829 830 831
f 829 831 832
f 825 828 830
f 825 830 829
f 826 832 831
f 826 831 827
f 825 829 832
f 825 832 826
f 828 827 831
f 828 831 830
v 0.000000 52.400000 18.000000
v 0.000000 55.600000 18.000000
v 27.500000 55.600000 18.000000
v 27.500000 52.400000 18.000000
v 0.000000 52.400000 19.600000
v 27.500000 52.400000 19.600000
v 27.500000 55.600000 19.600000
v 0.000000 55.600000 19.600000
f 833 834 835
f 833 835 836
f 837 838 839
f 837 839 840
f 833 836 838
f 833 838 837
f 834 840 839
f 834 839 835
f 833 837 840
f 833 840 834
f 836 835 839
f 836 839 838
v 27.500000 52.400000 18.000000
v 27.500000 55.600000 18.000000
v 55.000000 55.600000 18.000000
v 55.000000 52.400000 18.000000
v 27.500000 52.400000 19.600000
v 55.000000 52.400000 19.600000
v 55.000000 55.600000 19.600000
v 27.500000 55.600000 19.600000
f 841 842 843
f 841 843 844
f 845 846 847
f 845 847 848
f 841 844 846
f 841 846 845
f 842 848 847
f 842 847 843
f 841 845 848
f 841 848 842
f 844 843 847
f 844 847 846
v 59.400000 -35.000000 6.000000
v 59.400000 -17.500000 6.000000
v 62.600000 -17.500000 6.000000
v 62.600000 -35.000000 6.000000
v 59.400000 -35.000000 7.600000
v 62.600000 -35.000000 7.600000
v 62.600000 -17.500000 7.600000
v 59.400000 -17.500000 7.600000
f 849 850 851
f 849 851 852
f 853 854 855
f 853 855 856
f 849 852 854
f 849 854 853
f 850 856 855
f 850 855 851
f 849 853 856
f 849 856 850
f 852 851 855
f 852 855 854
v 59.400000 -17.500000 6.000000
v 59.400000 0.000000 6.000000
v 62.600000 0.000000 6.000000
v 62.600000 -17.500000 6.000000
v 59.400000 -17.500000 7.600000
v 62.600000 -17.500000 7.600000
v 62.600000 0.000000 7.600000
v 59.400000 0.000000 7.600000
f 857 858 859
f 857 859 860
f 861 862 863
f 861 863 864
f 857 860 862
f 857 862 861
f 858 864 863
f 858 863 859
f 857 861 864
f 857 864 858
f 860 859 863
f 860 863 862
v 59.400000 0.000000 6.000000
v 59.400000 17.500000 6.000000
v 62.600000 17.500000 6.000000
v 62.600000 0.000000 6.000000
v 59.400000 0.000000 7.600000
v 62.600000 0.000000 7.600000
v 62.600000 17.500000 7.600000
v 59.400000 17.500000 7.600000
f 865 866 867
f 865 867 868
f 869 870 871
f 869 871 872
f 865 868 870
f 865 870 869
f 866 872 871
f 866 871 867
f 865 869 872
f 865 872 866
f 868 867 871
f 868 871 870
v 59.400000 17.500000 6.000000
v 59.400000 35.000000 6.000000
v 62.600000 35.000000 6.000000
v 62.600000 17.500000 6.000000
v 59.400000 17.500000 7.600000
v 62.600000 17.500000 7.600000
v 62.600000 35.000000 7.600000
v 59.400000 35.000000 7.600000
f 873 874 875
f 873 875 876
f 877 878 879
f 877 879 880
f 873 876 878
f 873 878 877
f 874 880 879
f 874 879 875
f 873 877 880
f 873 880 874
f 876 875 879
f 876 879 878
v 64.400000 -35.000000 10.000000
v 64.400000 -17.500000 10.000000
v 67.600000 -17.500000 10.000000
v 67.600000 -35.000000 10.000000
v 64.400000 -35.000000 11.600000
v 67.600000 -35.000000 11.600000
v 67.600000 -17.500000 11.600000
v 64.400000 -17.500000 11.600000
f 881 882 883
f 881 883 884
f 885 886 887
f 885 887 888
f 881 884 886
f 881 886 885
f 882 888 887
f 882 887 883
f 881 885 888
f 881 888 882
f 884 883 887
f 884 887 886
v 64.400000 -17.500000 10.000000
v 64.400000 0.000000 10.000000
v 67.600000 0.000000 10.000000
v 67.600000 -17.500000 10.000000
v 64.400000 -17.500000 11.600000
v 67.600000 -17.500000 11.600000
v 67.600000 0.000000 11.600000
v 64.400000 0.000000 11.600000
f 889 890 891
f 889 891 892
f 893 894 895
f 893 895 896
f 889 892 894
f 889 894 893
f 890 896 895
f 890 895 891
f 889 893 896
f 889 896 890
f 892 891 895
f 892 895 894
v 64.400000 0.000000 10.000000
v 64.400000 17.500000 10.000000
v 67.600000 17.500000 10.000000
v 67.600000 0.000000 10.000000
v 64.400000 0.000000 11.600000
v 67.600000 0.000000 11.600000
v 67.600000 17.500000 11.600000
v 64.400000 17.500000 11.600000
f 897 898 899
f 897 899 900
f 901 902 903
f 901 903 904
f 897 900 902
f 897 902 901
f 898 904 903
f 898 903 899
f 897 901 904
f 897 904 898
f 900 899 903
f 900 903 902
v 64.400000 17.500000 10.000000
v 64.400000 35.000000 10.000000
v 67.600000 35.000000 10.000000
v 67.600000 17.500000 10.000000
v 64.400000 17.500000 11.600000
v 67.600000 17.500000 11.600000
v 67.600000 35.000000 11.600000
v 64.400000 35.000000 11.600000
f 905 906 907
f 905 907 908
f 909 910 911
f 909 911 912
f 905 908 910
f 905 910 909
f 906 912 911
f 906 911 907
f 905 909 912
f 905 912 906
f 908 907 911
f 908 911 910
v 69.400000 -35.000000 14.000000
v 69.400000 -17.500000 14.000000
v 72.600000 -17.500000 14.000000
v 72.600000 -35.000000 14.000000
v 69.400000 -35.000000 15.600000
v 72.600000 -35.000000 15.600000
v 72.600000 -17.500000 15.600000
v 69.400000 -17.500000 15.600000
f 913 914 915
f 913 915 916
f 917 918 919
f 917 919 920
f 913 916 918
f 913 918 917
f 914 920 919
f 914 919 915
f 913 917 920
f 913 920 914
f 916 915 919
f 916 919 918
v 69.400000 -17.500000 14.000000
v 69.400000 0.000000 14.000000
v 72.600000 0.000000 14.000000
v 72.600000 -17.500000 14.000000
v 69.400000 -17.500000 15.600000
v 72.600000 -17.500000 15.600000
v 72.600000 0.000000 15.600000
v 69.400000 0.000000 15.600000
f 921 922 923
f 921 923 924
f 925 926 927
f 925 927 928
f 921 924 926
f 921 926 925
f 922 928 927
f 922 927 923
f 921 925 928
f 921 928 922
f 924 923 927
f 924 927 926
v 69.400000 0.000000 14.000000
v 69.400000 17.500000 14.000000
v 72.600000 17.500000 14.000000
v 72.600000 0.000000 14.000000
v 69.400000 0.000000 15.600000
v 72.600000 0.000000 15.600000
v 72.600000 17.500000 15.600000
v 69.400000 17.500000 15.600000
f 929 930 931
f 929 931 932
f 933 934 935
f 933 935 936
f 929 932 934
f 929 934 933
f 930 936 935
f 930 935 931
f 929 933 936
f 929 936 930
f 932 931 935
f 932 935 934
v 69.400000 17.500000 14.000000
v 69.400000 35.000000 14.000000
v 72.600000 35.000000 14.000000
v 72.600000 17.500000 14.000000
v 69.400000 17.500000 15.600000
v 72.600000 17.500000 15.600000
v 72.600000 35.000000 15.600000
v 69.400000 35.000000 15.600000
f 937 938 939
f 937 939 940
f 941 942 943
f 941 943 944
f 937 940 942
f 937 942 941
f 938 944 943
f 938 943 939
f 937 941 944
f 937 944 938
f 940 939 943
f 940 943 942
v 74.400000 -35.000000 18.000000
v 74.400000 -17.500000 18.000000
v 77.600000 -17.500000 18.000000
v 77.600000 -35.000000 18.000000
v 74.400000 -35.000000 19.600000
v 77.600000 -35.000000 19.600000
v 77.600000 -17.500000 19.600000
v 74.400000 -17.500000 19.600000
f 945 946 947
f 945 947 948
f 949 950 951
f 949 951 952
f 945 948 950
f 945 950 949
f 946 952 951
f 946 951 947
f 945 949 952
f 945 952 946
f 948 947 951
f 948 951 950
v 74.400000 -17.500000 18.000000
v 74.400000 0.000000 18.000000
v 77.600000 0.000000 18.000000
v 77.600000 -17.500000 18.000000
v 74.400000 -17.500000 19.600000
v 77.600000 -17.500000 19.600000
v 77.600000 0.000000 19.600000
v 74.400000 0.000000 19.600000
f 953 954 955
f 953 955 956
f 957 958 959
f 957 959 960
f 953 956 958
f 953 958 957
f 954 960 959
f 954 959 955
f 953 957 960
f 953 960 954
f 956 955 959
f 956 959 958
v 74.400000 0.000000 18.000000
v 74.400000 17.500000 18.000000
v 77.600000 17.500000 18.000000
v 77.600000 0.000000 18.000000
v 74.400000 0.000000 19.600000
v 77.600000 0.000000 19.600000
v 77.600000 17.500000 19.600000
v 74.400000 17.500000 19.600000
f 961 962 963
f 961 963 964
f 965 966 967
f 965 967 968
f 961 964 966
f 961 966 965
f 962 968 967
f 962 967 963
f 961 965 968
f 961 968 962
f 964 963 967
f 964 967 966
v 74.400000 17.500000 18.000000
v 74.400000 35.000000 18.000000
v 77.600000 35.000000 18.000000
v 77.600000 17.500000 18.000000
v 74.400000 17.500000 19.600000
v 77.600000 17.500000 19.600000
v 77.600000 35.000000 19.600000
v 74.400000 35.000000 19.600000
f 969 970 971
f 969 971 972
f 973 974 975
f 973 975 976
f 969 972 974
f 969 974 973
f 970 976 975
f 970 975 971
f 969 973 976
f 969 976 970
f 972 971 975
f 972 975 974
v -62.600000 -35.000000 6.000000
v -62.600000 -17.500000 6.000000
v -59.400000 -17.500000 6.000000
v -59.400000 -35.000000 6.000000
v -62.600000 -35.000000 7.600000
v -59.400000 -35.000000 7.600000
v -59.400000 -17.500000 7.600000
v -62.600000 -17.500000 7.600000
f 977 978 979
f 977 979 980
f 981 982 983
f 981 983 984
f 977 980 982
f 977 982 981
f 978 984 983
f 978 983 979
f 977 981 984
f 977 984 978
f 980 979 983
f 980 983 982
v -62.600000 -17.500000 6.000000
v -62.600000 0.000000 6.000000
v -59.400000 0.000000 6.000000
v -59.400000 -17.500000 6.000000
v -62.600000 -17.500000 7.600000
v -59.400000 -17.500000 7.600000
v -59.400000 0.000000 7.600000
v -62.600000 0.000000 7.600000
f 985 986 987
f 985 987 988
f 989 990 991
f 989 991 992
f 985 988 990
f 985 990 989
f 986 992 991
f 986 991 987
f 985 989 992
f 985 992 986
f 988 987 991
f 988 991 990
v -62.600000 0.000000 6.000000
v -62.600000 17.500000 6.000000
v -59.400000 17.500000 6.000000
v -59.400000 0.000000 6.000000
v -62.600000 0.000000 7.600000
v -59.400000 0.000000 7.600000
v -59.400000 17.500000 7.600000
v -62.600000 17.500000 7.600000
f 993 994 995
f 993 995 996
f 997 998 999
f 997 999 1000
f 993 996 998
f 993 998 997
f 994 1000 999
f 994 999 995
f 993 997 1000
f 993 1000 994
f 996 995 999
f 996 999 998
v -62.600000 17.500000 6.000000
v -62.600000 35.000000 6.000000
v -59.400000 35.000000 6.000000
v -59.400000 17.500000 6.000000
v -62.600000 17.500000 7.600000
v -59.400000 17.500000 7.600000
v -59.400000 35.000000 7.600000
v -62.600000 35.000000 7.600000
f 1001 1002 1003
f 1001 1003 1004
f 1005 1006 1007
f 1005 1007 1008
f 1001 1004 1006
f 1001 1006 1005
f 1002 1008 1007
f 1002 1007 1003
f 1001 1005 1008
f 1001 1008 1002
f 1004 1003 1007
f 1004 1007 1006
v -67.600000 -35.000000 10.000000
v -67.600000 -17.500000 10.000000
v -64.400000 -17.500000 10.000000
v -64.400000 -35.000000 10.000000
v -67.600000 -35.000000 11.600000
v -64.400000 -35.000000 11.600000
v -64.400000 -17.500000 11.600000
v -67.600000 -17.500000 11.600000
f 1009 1010 1011
f 1009 1011 1012
f 1013 1014 1015
f 1013 1015 1016
f 1009 1012 1014
f 1009 1014 1013
f 1010 1016 1015
f 1010 1015 1011
f 1009 1013 1016
f 1009 1016 1010
f 1012 1011 1015
f 1012 1015 1014
v -67.600000 -17.500000 10.000000
v -67.600000 0.000000 10.000000
v -64.400000 0.000000 10.000000
v -64.400000 -17.500000 10.000000
v -67.600000 -17.500000 11.600000
v -64.400000 -17.500000 11.600000
v -64.400000 0.000000 11.600000
v -67.600000 0.000000 11.600000
f 1017 1018 1019
f 1017 1019 1020
f 1021 1022 1023
f 1021 1023 1024
f 1017 1020 1022
f 1017 1022 1021
f 1018 1024 1023
f 1018 1023 1019
f 1017 1021 1024
f 1017 1024 1018
f 1020 1019 1023
f 1020 1023 1022
v -67.600000 0.000000 10.000000
v -67.600000 17.500000 10.000000
v -64.400000 17.500000 10.000000
v -64.400000 0.000000 10.000000
v -67.600000 0.000000 11.600000
v -64.400000 0.000000 11.600000
v -64.400000 17.500000 11.600000
v -67.600000 17.500000 11.600000
f 1025 1026 1027
f 1025 1027 1028
f 1029 1030 1031
f 1029 1031 1032
f 1025 1028 1030
f 1025 1030 1029
f 1026 1032 1031
f 1026 1031 1027
f 1025 1029 1032
f 1025 1032 1026
f 1028 1027 1031
f 1028 1031 1030
v -67.600000 17.500000 10.000000
v -67.600000 35.000000 10.000000
v -64.400000 35.000000 10.000000
v -64.400000 17.500000 10.000000
v -67.600000 17.500000 11.600000
v -64.400000 17.500000 11.600000
v -64.400000 35.000000 11.600000
v -67.600000 35.000000 11.600000
f 1033 1034 1035
f 1033 1035 1036
f 1037 1038 1039
f 1037 1039 1040
f 1033 1036 1038
f 1033 1038 1037
f 1034 1040 1039
f 1034 1039 1035
f 1033 1037 1040
f 1033 1040 1034
f 1036 1035 1039
f 1036 1039 1038
v -72.600000 -35.000000 14.000000
v -72.600000 -17.500000 14.000000
v -69.400000 -17.500000 14.000000
v -69.400000 -35.000000 14.000000
v -72.600000 -35.000000 15.600000
v -69.400000 -35.000000 15.600000
v -69.400000 -17.500000 15.600000
v -72.600000 -17.500000 15.600000
f 1041 1042 1043
f 1041 1043 1044
f 1045 1046 1047
f 1045 1047 1048
f 1041 1044 1046
f 1041 1046 1045
f 1042 1048 1047
f 1042 1047 1043
f 1041 1045 1048
f 1041 1048 1042
f 1044 1043 1047
f 1044 1047 1046
v -72.600000 -17.500000 14.000000
v -72.600000 0.000000 14.000000
v -69.400000 0.000000 14.000000
v -69.400000 -17.500000 14.000000
v -72.600000 -17.500000 15.600000
v -69.400000 -17.500000 15.600000
v -69.400000 0.000000 15.600000
v -72.600000 0.000000 15.600000
f 1049 1050 1051
f 1049 1051 1052
f 1053 1054 1055
f 1053 1055 1056
f 1049 1052 1054
f 1049 1054 1053
f 1050 1056 1055
f 1050 1055 1051
f 1049 1053 1056
f 1049 1056 1050
f 1052 1051 1055
f 1052 1055 1054
v -72.600000 0.000000 14.000000
v -72.600000 17.500000 14.000000
v -69.400000 17.500000 14.000000
v -69.400000 0.000000 14.000000
v -72.600000 0.000000 15.600000
v -69.400000 0.000000 15.600000
v -69.400000 17.500000 15.600000
v -72.600000 17.500000 15.600000
f 1057 1058 1059
f 1057 1059 1060
f 1061 1062 1063
f 1061 1063 1064
f 1057 1060 1062
f 1057 1062 1061
f 1058 1064 1063
f 1058 1063 1059
f 1057 1061 1064
f 1057 1064 1058
f 1060 1059 1063
f 1060 1063 1062
v -72.600000 17.500000 14.000000
v -72.600000 35.000000 14.000000
v -69.400000 35.000000 14.000000
v -69.400000 17.500000 14.000000
v -72.600000 17.500000 15.600000
v -69.400000 17.500000 15.600000
v -69.400000 35.000000 15.600000
v -72.600000 35.000000 15.600000
f 1065 1066 1067
f 1065 1067 1068
f 1069 1070 1071
f 1069 1071 1072
f 1065 1068 1070
f 1065 1070 1069
f 1066 1072 1071
f 1066 1071 1067
f 1065 1069 1072
f 1065 1072 1066
f 1068 1067 1071
f 1068 1071 1070
v -77.600000 -35.000000 18.000000
v -77.600000 -17.500000 18.000000
v -74.400000 -17.500000 18.000000
v -74.400000 -35.000000 18.000000
v -77.600000 -35.000000 19.600000
v -74.400000 -35.000000 19.600000
v -74.400000 -17.500000 19.600000
v -77.600000 -17.500000 19.600000
f 1073 1074 1075
f 1073 1075 1076
f 1077 1078 1079
f 1077 1079 1080
f 1073 1076 1078
f 1073 1078 1077
f 1074 1080 1079
f 1074 1079 1075
f 1073 1077 1080
f 1073 1080 1074
f 1076 1075 1079
f 1076 1079 1078
v -77.600000 -17.500000 18.000000
v -77.600000 0.000000 18.000000
v -74.400000 0.000000 18.000000
v -74.400000 -17.500000 18.000000
v -77.600000 -17.500000 19.600000
v -74.400000 -17.500000 19.600000
v -74.400000 0.000000 19.600000
v -77.600000 0.000000 19.600000
f 1081 1082 1083
f 1081 1083 1084
f 1085 1086 1087
f 1085 1087 1088
f 1081 1084 1086
f 1081 1086 1085
f 1082 1088 1087
f 1082 1087 1083
f 1081 1085 1088
f 1081 1088 1082
f 1084 1083 1087
f 1084 1087 1086
v -77.600000 0.000000 18.000000
v -77.600000 17.500000 18.000000
v -74.400000 17.500000 18.000000
v -74.400000 0.000000 18.000000
v -77.600000 0.000000 19.600000
v -74.400000 0.000000 19.600000
v -74.400000 17.500000 19.600000
v -77.600000 17.500000 19.600000
f 1089 1090 1091
f 1089 1091 1092
f 1093 1094 1095
f 1093 1095 1096
f 1089 1092 1094
f 1089 1094 1093
f 1090 1096 1095
f 1090 1095 1091
f 1089 1093 1096
f 1089 1096 1090
f 1092 1091 1095
f 1092 1095 1094
v -77.600000 17.500000 18.000000
v -77.600000 35.000000 18.000000
v -74.400000 35.000000 18.000000
v -74.400000 17.500000 18.000000
v -77.600000 17.500000 19.600000
v -74.400000 17.500000 19.600000
v -74.400000 35.000000 19.600000
v -77.600000 35.000000 19.600000
f 1097 1098 1099
f 1097 1099 1100
f 1101 1102 1103
f 1101 1103 1104
f 1097 1100 1102
f 1097 1102 1101
f 1098 1104 1103
f 1098 1103 1099
f 1097 1101 1104
f 1097 1104 1098
f 1100 1099 1103
f 1100 1103 1102
v -50.000000 -36.500000 0.000000
v -50.000000 -34.500000 0.000000
v -46.000000 -34.500000 0.000000
v -46.000000 -36.500000 0.000000
v -50.000000 -36.500000 22.000000
v -46.000000 -36.500000 22.000000
v -46.000000 -34.500000 22.000000
v -50.000000 -34.500000 22.000000
f 1105 1106 1107
f 1105 1107 1108
f 1109 1110 1111
f 1109 1111 1112
f 1105 1108 1110
f 1105 1110 1109
f 1106 1112 1111
f 1106 1111 1107
f 1105 1109 1112
f 1105 1112 1106
f 1108 1107 1111
f 1108 1111 1110
v -50.000000 34.500000 0.000000
v -50.000000 36.500000 0.000000
v -46.000000 36.500000 0.000000
v -46.000000 34.500000 0.000000
v -50.000000 34.500000 22.000000
v -46.000000 34.500000 22.000000
v -46.000000 36.500000 22.000000
v -50.000000 36.500000 22.000000
f 1113 1114 1115
f 1113 1115 1116
f 1117 1118 1119
f 1117 1119 1120
f 1113 1116 1118
f 1113 1118 1117
f 1114 1120 1119
f 1114 1119 1115
f 1113 1117 1120
f 1113 1120 1114
f 1116 1115 1119
f 1116 1119 1118
v -50.000000 -61.000000 0.000000
v -50.000000 -57.000000 0.000000
v -46.000000 -57.000000 0.000000
v -46.000000 -61.000000 0.000000
v -50.000000 -61.000000 22.000000
v -46.000000 -61.000000 22.000000
v -46.000000 -57.000000 22.000000
v -50.000000 -57.000000 22.000000
f 1121 1122 1123
f 1121 1123 1124
f 1125 1126 1127
f 1125 1127 1128
f 1121 1124 1126
f 1121 1126 1125
f 1122 1128 1127
f 1122 1127 1123
f 1121 1125 1128
f 1121 1128 1122
f 1124 1123 1127
f 1124 1127 1126
v -50.000000 57.000000 0.000000
v -50.000000 61.000000 0.000000
v -46.000000 61.000000 0.000000
v -46.000000 57.000000 0.000000
v -50.000000 57.000000 22.000000
v -46.000000 57.000000 22.000000
v -46.000000 61.000000 22.000000
v -50.000000 61.000000 22.000000
f 1129 1130 1131
f 1129 1131 1132
f 1133 1134 1135
f 1133 1135 1136
f 1129 1132 1134
f 1129 1134 1133
f 1130 1136 1135
f 1130 1135 1131
f 1129 1133 1136
f 1129 1136 1130
f 1132 1131 1135
f 1132 1135 1134
v -18.000000 -36.500000 0.000000
v -18.000000 -34.500000 0.000000
v -14.000000 -34.500000 0.000000
v -14.000000 -36.500000 0.000000
v -18.000000 -36.500000 22.000000
v -14.000000 -36.500000 22.000000
v -14.000000 -34.500000 22.000000
v -18.000000 -34.500000 22.000000
f 1137 1138 1139
f 1137 1139 1140
f 1141 1142 1143
f 1141 1143 1144
f 1137 1140 1142
f 1137 1142 1141
f 1138 1144 1143
f 1138 1143 1139
f 1137 1141 1144
f 1137 1144 1138
f 1140 1139 1143
f 1140 1143 1142
v -18.000000 34.500000 0.000000
v -18.000000 36.500000 0.000000
v -14.000000 36.500000 0.000000
v -14.000000 34.500000 0.000000
v -18.000000 34.500000 22.000000
v -14.000000 34.500000 22.000000
v -14.000000 36.500000 22.000000
v -18.000000 36.500000 22.000000
f 1145 1146 1147
f 1145 1147 1148
f 1149 1150 1151
f 1149 1151 1152
f 1145 1148 1150
f 1145 1150 1149
f 1146 1152 1151
f 1146 1151 1147
f 1145 1149 1152
f 1145 1152 1146
f 1148 1147 1151
f 1148 1151 1150
v -22.000000 -61.000000 0.000000
v -22.000000 -57.000000 0.000000
v -18.000000 -57.000000 0.000000
v -18.000000 -61.000000 0.000000
v -22.000000 -61.000000 22.000000
v -18.000000 -61.000000 22.000000
v -18.000000 -57.000000 22.000000
v -22.000000 -57.000000 22.000000
f 1153 1154 1155
f 1153 1155 1156
f 1157 1158 1159
f 1157 1159 1160
f 1153 1156 1158
f 1153 1158 1157
f 1154 1160 1159
f 1154 1159 1155
f 1153 1157 1160
f 1153 1160 1154
f 1156 1155 1159
f 1156 1159 1158
v -22.000000 57.000000 0.000000
v -22.000000 61.000000 0.000000
v -18.000000 61.000000 0.000000
v -18.000000 57.000000 0.000000
v -22.000000 57.000000 22.000000
v -18.000000 57.000000 22.000000
v -18.000000 61.000000 22.000000
v -22.000000 61.000000 22.000000
f 1161 1162 1163
f 1161 1163 1164
f 1165 1166 1167
f 1165 1167 1168
f 1161 1164 1166
f 1161 1166 1165
f 1162 1168 1167
f 1162 1167 1163
f 1161 1165 1168
f 1161 1168 1162
f 1164 1163 1167
f 1164 1167 1166
v 14.000000 -36.500000 0.000000
v 14.000000 -34.500000 0.000000
v 18.000000 -34.500000 0.000000
v 18.000000 -36.500000 0.000000
v 14.000000 -36.500000 22.000000
v 18.000000 -36.500000 22.000000
v 18.000000 -34.500000 22.000000
v 14.000000 -34.500000 22.000000
f 1169 1170 1171
f 1169 1171 1172
f 1173 1174 1175
f 1173 1175 1176
f 1169 1172 1174
f 1169 1174 1173
f 1170 1176 1175
f 1170 1175 1171
f 1169 1173 1176
f 1169 1176 1170
f 1172 1171 1175
f 1172 1175 1174
v 14.000000 34.500000 0.000000
v 14.000000 36.500000 0.000000
v 18.000000 36.500000 0.000000
v 18.000000 34.500000 0.000000
v 14.000000 34.500000 22.000000
v 18.000000 34.500000 22.000000
v 18.000000 36.500000 22.000000
v 14.000000 36.500000 22.000000
f 1177 1178 1179
f 1177 1179 1180
f 1181 1182 1183
f 1181 1183 1184
f 1177 1180 1182
f 1177 1182 1181
f 1178 1184 1183
f 1178 1183 1179
f 1177 1181 1184
f 1177 1184 1178
f 1180 1179 1183
f 1180 1183 1182
v 18.000000 -61.000000 0.000000
v 18.000000 -57.000000 0.000000
v 22.000000 -57.000000 0.000000
v 22.000000 -61.000000 0.000000
v 18.000000 -61.000000 22.000000
v 22.000000 -61.000000 22.000000
v 22.000000 -57.000000 22.000000
v 18.000000 -57.000000 22.000000
f 1185 1186 1187
f 1185 1187 1188
f 1189 1190 1191
f 1189 1191 1192
f 1185 1188 1190
f 1185 1190 1189
f 1186 1192 1191
f 1186 1191 1187
f 1185 1189 1192
f 1185 1192 1186
f 1188 1187 1191
f 1188 1191 1190
v 18.000000 57.000000 0.000000
v 18.000000 61.000000 0.000000
v 22.000000 61.000000 0.000000
v 22.000000 57.000000 0.000000
v 18.000000 57.000000 22.000000
v 22.000000 57.000000 22.000000
v 22.000000 61.000000 22.000000
v 18.000000 61.000000 22.000000
f 1193 1194 1195
f 1193 1195 1196
f 1197 1198 1199
f 1197 1199 1200
f 1193 1196 1198
f 1193 1198 1197
f 1194 1200 1199
f 1194 1199 1195
f 1193 1197 1200
f 1193 1200 1194
f 1196 1195 1199
f 1196 1199 1198
v 46.000000 -36.500000 0.000000
v 46.000000 -34.500000 0.000000
v 50.000000 -34.500000 0.000000
v 50.000000 -36.500000 0.000000
v 46.000000 -36.500000 22.000000
v 50.000000 -36.500000 22.000000
v 50.000000 -34.500000 22.000000
v 46.000000 -34.500000 22.000000
f 1201 1202 1203
f 1201 1203 1204
f 1205 1206 1207
f 1205 1207 1208
f 1201 1204 1206
f 1201 1206 1205
f 1202 1208 1207
f 1202 1207 1203
f 1201 1205 1208
f 1201 1208 1202
f 1204 1203 1207
f 1204 1207 1206
v 46.000000 34.500000 0.000000
v 46.000000 36.500000 0.000000
v 50.000000 36.500000 0.000000
v 50.000000 34.500000 0.000000
v 46.000000 34.500000 22.000000
v 50.000000 34.500000 22.000000
v 50.000000 36.500000 22.000000
v 46.000000 36.500000 22.000000
f 1209 1210 1211
f 1209 1211 1212
f 1213 1214 1215
f 1213 1215 1216
f 1209 1212 1214
f 1209 1214 1213
f 1210 1216 1215
f 1210 1215 1211
f 1209 1213 1216
f 1209 1216 1210
f 1212 1211 1215
f 1212 1215 1214
v 46.000000 -61.000000 0.000000
v 46.000000 -57.000000 0.000000
v 50.000000 -57.000000 0.000000
v 50.000000 -61.000000 0.000000
v 46.000000 -61.000000 22.000000
v 50.000000 -61.000000 22.000000
v 50.000000 -57.000000 22.000000
v 46.000000 -57.000000 22.000000
f 1217 1218 1219
f 1217 1219 1220
f 1221 1222 1223
f 1221 1223 1224
f 1217 1220 1222
f 1217 1222 1221
f 1218 1224 1223
f 1218 1223 1219
f 1217 1221 1224
f 1217 1224 1218
f 1220 1219 1223
f 1220 1223 1222
v 46.000000 57.000000 0.000000
v 46.000000 61.000000 0.000000
v 50.000000 61.000000 0.000000
v 50.000000 57.000000 0.000000
v 46.000000 57.000000 22.000000
v 50.000000 57.000000 22.000000
v 50.000000 61.000000 22.000000
v 46.000000 61.000000 22.000000
f 1225 1226 1227
f 1225 1227 1228
f 1229 1230 1231
f 1229 1231 1232
f 1225 1228 1230
f 1225 1230 1229
f 1226 1232 1231
f 1226 1231 1227
f 1225 1229 1232
f 1225 1232 1226
f 1228 1227 1231
f 1228 1231 1230
v 79.000000 -2.000000 0.000000
v 79.000000 2.000000 0.000000
v 83.000000 2.000000 0.000000
v 83.000000 -2.000000 0.000000
v 79.000000 -2.000000 22.000000
v 83.000000 -2.000000 22.000000
v 83.000000 2.000000 22.000000
v 79.000000 2.000000 22.000000
f 1233 1234 1235
f 1233 1235 1236
f 1237 1238 1239
f 1237 1239 1240
f 1233 1236 1238
f 1233 1238 1237
f 1234 1240 1239
f 1234 1239 1235
f 1233 1237 1240
f 1233 1240 1234
f 1236 1235 1239
f 1236 1239 1238
v -83.000000 -2.000000 0.000000
v -83.000000 2.000000 0.000000
v -79.000000 2.000000 0.000000
v -79.000000 -2.000000 0.000000
v -83.000000 -2.000000 22.000000
v -79.000000 -2.000000 22.000000
v -79.000000 2.000000 22.000000
v -83.000000 2.000000 22.000000
f 1241 1242 1243
f 1241 1243 1244
f 1245 1246 1247
f 1245 1247 1248
f 1241 1244 1246
f 1241 1246 1245
f 1242 1248 1247
f 1242 1247 1243
f 1241 1245 1248
f 1241 1248 1242
f 1244 1243 1247
f 1244 1247 1246
v -51.000000 -56.000000 22.000000
v 51.000000 -32.000000 22.000000
v 51.000000 -56.000000 22.000000
v -51.000000 -32.000000 22.000000
v 51.000000 -44.000000 32.000000
v -51.000000 -44.000000 32.000000
f 1249 1250 1251
f 1249 1252 1250
f 1249 1251 1253
f 1249 1253 1254
f 1252 1253 1250
f 1252 1254 1253
f 1249 1254 1252
f 1251 1250 1253
v -51.000000 32.000000 22.000000
v 51.000000 56.000000 22.000000
v 51.000000 32.000000 22.000000
v -51.000000 56.000000 22.000000
v 51.000000 44.000000 32.000000
v -51.000000 44.000000 32.000000
f 1255 1256 1257
f 1255 1258 1256
f 1255 1257 1259
f 1255 1259 1260
f 1258 1259 1256
f 1258 1260 1259
f 1255 1260 1258
f 1257 1256 1259
v 56.000000 -29.000000 22.000000
v 56.000000 29.000000 22.000000
v 78.000000 29.000000 22.000000
v 78.000000 -29.000000 22.000000
v 67.000000 29.000000 32.000000
v 67.000000 -29.000000 32.000000
f 1261 1262 1263
f 1261 1263 1264
f 1261 1265 1262
f 1261 1266 1265
f 1264 1263 1265
f 1264 1265 1266
f 1261 1264 1266
f 1262 1265 1263
v -78.000000 -29.000000 22.000000
v -78.000000 29.000000 22.000000
v -56.000000 29.000000 22.000000
v -56.000000 -29.000000 22.000000
v -67.000000 29.000000 32.000000
v -67.000000 -29.000000 32.000000
f 1267 1268 1269
f 1267 1269 1270
f 1267 1271 1268
f 1267 1272 1271
f 1270 1269 1271
f 1270 1271 1272
f 1267 1270 1272
f 1268 1271 1269
v -43.000000 -34.500000 2.000000
v -43.000000 -34.000000 2.000000
v -31.000000 -34.000000 2.000000
v -31.000000 -34.500000 2.000000
v -43.000000 -34.500000 4.500000
v -31.000000 -34.500000 4.500000
v -31.000000 -34.000000 4.500000
v -43.000000 -34.000000 4.500000
f 1273 1274 1275
f 1273 1275 1276
f 1277 1278 1279
f 1277 1279 1280
f 1273 1276 1278
f 1273 1278 1277
f 1274 1280 1279
f 1274 1279 1275
f 1273 1277 1280
f 1273 1280 1274
f 1276 1275 1279
f 1276 1279 1278
v -43.000000 34.000000 2.000000
v -43.000000 34.500000 2.000000
v -31.000000 34.500000 2.000000
v -31.000000 34.000000 2.000000
v -43.000000 34.000000 4.500000
v -31.000000 34.000000 4.500000
v -31.000000 34.500000 4.500000
v -43.000000 34.500000 4.500000
f 1281 1282 1283
f 1281 1283 1284
f 1285 1286 1287
f 1285 1287 1288
f 1281 1284 1286
f 1281 1286 1285
f 1282 1288 1287
f 1282 1287 1283
f 1281 1285 1288
f 1281 1288 1282
f 1284 1283 1287
f 1284 1287 1286
v 31.000000 -34.500000 2.000000
v 31.000000 -34.000000 2.000000
v 43.000000 -34.000000 2.000000
v 43.000000 -34.500000 2.000000
v 31.000000 -34.500000 4.500000
v 43.000000 -34.500000 4.500000
v 43.000000 -34.000000 4.500000
v 31.000000 -34.000000 4.500000
f 1289 1290 1291
f 1289 1291 1292
f 1293 1294 1295
f 1293 1295 1296
f 1289 1292 1294
f 1289 1294 1293
f 1290 1296 1295
f 1290 1295 1291
f 1289 1293 1296
f 1289 1296 1290
f 1292 1291 1295
f 1292 1295 1294
v 31.000000 34.000000 2.000000
v 31.000000 34.500000 2.000000
v 43.000000 34.500000 2.000000
v 43.000000 34.000000 2.000000
v 31.000000 34.000000 4.500000
v 43.000000 34.000000 4.500000
v 43.000000 34.500000 4.500000
v 31.000000 34.500000 4.500000
f 1297 1298 1299
f 1297 1299 1300
f 1301 1302 1303
f 1301 1303 1304
f 1297 1300 1302
f 1297 1302 1301
f 1298 1304 1303
f 1298 1303 1299
f 1297 1301 1304
f 1297 1304 1298
f 1300 1299 1303
f 1300 1303 1302
v 53.350000 -24.000000 2.000000
v 53.350000 -0.500000 2.000000
v 53.850000 -0.500000 2.000000
v 53.850000 -24.000000 2.000000
v 53.350000 -24.000000 4.500000
v 53.850000 -24.000000 4.500000
v 53.850000 -0.500000 4.500000
v 53.350000 -0.500000 4.500000
f 1305 1306 1307
f 1305 1307 1308
f 1309 1310 1311
f 1309 1311 1312
f 1305 1308 1310
f 1305 1310 1309
f 1306 1312 1311
f 1306 1311 1307
f 1305 1309 1312
f 1305 1312 1306
f 1308 1307 1311
f 1308 1311 1310
v -53.850000 -24.000000 2.000000
v -53.850000 -0.500000 2.000000
v -53.350000 -0.500000 2.000000
v -53.350000 -24.000000 2.000000
v -53.850000 -24.000000 4.500000
v -53.350000 -24.000000 4.500000
v -53.350000 -0.500000 4.500000
v -53.850000 -0.500000 4.500000
f 1313 1314 1315
f 1313 1315 1316
f 1317 1318 1319
f 1317 1319 1320
f 1313 1316 1318
f 1313 1318 1317
f 1314 1320 1319
f 1314 1319 1315
f 1313 1317 1320
f 1313 1320 1314
f 1316 1315 1319
f 1316 1319 1318
v 53.350000 0.500000 2.000000
v 53.350000 24.000000 2.000000
v 53.850000 24.000000 2.000000
v 53.850000 0.500000 2.000000
v 53.350000 0.500000 4.500000
v 53.850000 0.500000 4.500000
v 53.850000 24.000000 4.500000
v 53.350000 24.000000 4.500000
f 1321 1322 1323
f 1321 1323 1324
f 1325 1326 1327
f 1325 1327 1328
f 1321 1324 1326
f 1321 1326 1325
f 1322 1328 1327
f 1322 1327 1323
f 1321 1325 1328
f 1321 1328 1322
f 1324 1323 1327
f 1324 1327 1326
v -53.850000 0.500000 2.000000
v -53.850000 24.000000 2.000000
v -53.350000 24.000000 2.000000
v -53.350000 0.500000 2.000000
v -53.850000 0.500000 4.500000
v -53.350000 0.500000 4.500000
v -53.350000 24.000000 4.500000
v -53.850000 24.000000 4.500000
f 1329 1330 1331
f 1329 1331 1332
f 1333 1334 1335
f 1333 1335 1336
f 1329 1332 1334
f 1329 1334 1333
f 1330 1336 1335
f 1330 1335 1331
f 1329 1333 1336
f 1329 1336 1330
f 1332 1331 1335
f 1332 1335 1334
v -7.000000 -36.500000 0.000000
v -7.000000 -34.000000 0.000000
v 7.000000 -34.000000 0.000000
v 7.000000 -36.500000 0.000000
v -7.000000 -36.500000 2.000000
v 7.000000 -36.500000 2.000000
v 7.000000 -34.000000 2.000000
v -7.000000 -34.000000 2.000000
f 1337 1338 1339
f 1337 1339 1340
f 1341 1342 1343
f 1341 1343 1344
f 1337 1340 1342
f 1337 1342 1341
f 1338 1344 1343
f 1338 1343 1339
f 1337 1341 1344
f 1337 1344 1338
f 1340 1339 1343
f 1340 1343 1342
v -7.000000 -36.500000 2.000000
v -7.000000 -34.000000 2.000000
v 7.000000 -34.000000 2.000000
v 7.000000 -36.500000 2.000000
v -7.000000 -36.500000 2.600000
v 7.000000 -36.500000 2.600000
v 7.000000 -34.000000 2.600000
v -7.000000 -34.000000 2.600000
f 1345 1346 1347
f 1345 1347 1348
f 1349 1350 1351
f 1349 1351 1352
f 1345 1348 1350
f 1345 1350 1349
f 1346 1352 1351
f 1346 1351 1347
f 1345 1349 1352
f 1345 1352 1346
f 1348 1347 1351
f 1348 1351 1350
v -36.000000 -36.200000 0.000000
v -36.000000 -34.200000 0.000000
v -24.000000 -34.200000 0.000000
v -24.000000 -36.200000 0.000000
v -36.000000 -36.200000 1.600000
v -24.000000 -36.200000 1.600000
v -24.000000 -34.200000 1.600000
v -36.000000 -34.200000 1.600000
f 1353 1354 1355
f 1353 1355 1356
f 1357 1358 1359
f 1357 1359 1360
f 1353 1356 1358
f 1353 1358 1357
f 1354 1360 1359
f 1354 1359 1355
f 1353 1357 1360
f 1353 1360 1354
f 1356 1355 1359
f 1356 1359 1358
v -36.000000 -36.500000 0.000000
v -36.000000 -36.200000 0.000000
v -24.000000 -36.200000 0.000000
v -24.000000 -36.500000 0.000000
v -36.000000 -36.500000 3.400000
v -24.000000 -36.500000 3.400000
v -24.000000 -36.200000 3.400000
v -36.000000 -36.200000 3.400000
f 1361 1362 1363
f 1361 1363 1364
f 1365 1366 1367
f 1365 1367 1368
f 1361 1364 1366
f 1361 1366 1365
f 1362 1368 1367
f 1362 1367 1363
f 1361 1365 1368
f 1361 1368 1362
f 1364 1363 1367
f 1364 1367 1366
v -37.000000 -36.900000 3.400000
v -23.000000 -34.900000 3.400000
v -23.000000 -36.900000 3.400000
v -37.000000 -34.900000 3.400000
v -23.000000 -35.900000 5.400000
v -37.000000 -35.900000 5.400000
f 1369 1370 1371
f 1369 1372 1370
f 1369 1371 1373
f 1369 1373 1374
f 1372 1373 1370
f 1372 1374 1373
f 1369 1374 1372
f 1371 1370 1373
v 24.000000 -36.200000 0.000000
v 24.000000 -34.200000 0.000000
v 36.000000 -34.200000 0.000000
v 36.000000 -36.200000 0.000000
v 24.000000 -36.200000 1.600000
v 36.000000 -36.200000 1.600000
v 36.000000 -34.200000 1.600000
v 24.000000 -34.200000 1.600000
f 1375 1376 1377
f 1375 1377 1378
f 1379 1380 1381
f 1379 1381 1382
f 1375 1378 1380
f 1375 1380 1379
f 1376 1382 1381
f 1376 1381 1377
f 1375 1379 1382
f 1375 1382 1376
f 1378 1377 1381
f 1378 1381 1380
v 24.000000 -36.500000 0.000000
v 24.000000 -36.200000 0.000000
v 36.000000 -36.200000 0.000000
v 36.000000 -36.500000 0.000000
v 24.000000 -36.500000 3.400000
v 36.000000 -36.500000 3.400000
v 36.000000 -36.200000 3.400000
v 24.000000 -36.200000 3.400000
f 1383 1384 1385
f 1383 1385 1386
f 1387 1388 1389
f 1387 1389 1390
f 1383 1386 1388
f 1383 1388 1387
f 1384 1390 1389
f 1384 1389 1385
f 1383 1387 1390
f 1383 1390 1384
f 1386 1385 1389
f 1386 1389 1388
v 23.000000 -36.900000 3.400000
v 37.000000 -34.900000 3.400000
v 37.000000 -36.900000 3.400000
v 23.000000 -34.900000 3.400000
v 37.000000 -35.900000 5.400000
v 23.000000 -35.900000 5.400000
f 1391 1392 1393
f 1391 1394 1392
f 1391 1393 1395
f 1391 1395 1396
f 1394 1395 1392
f 1394 1396 1395
f 1391 1396 1394
f 1393 1392 1395
v 80.000000 38.000000 0.000000
v 80.000000 42.000000 0.000000
v 84.000000 42.000000 0.000000
v 84.000000 38.000000 0.000000
v 80.000000 38.000000 24.000000
v 84.000000 38.000000 24.000000
v 84.000000 42.000000 24.000000
v 80.000000 42.000000 24.000000
f 1397 1398 1399
f 1397 1399 1400
f 1401 1402 1403
f 1401 1403 1404
f 1397 1400 1402
f 1397 1402 1401
f 1398 1404 1403
f 1398 1403 1399
f 1397 1401 1404
f 1397 1404 1398
f 1400 1399 1403
f 1400 1403 1402
v 96.000000 38.000000 0.000000
v 96.000000 42.000000 0.000000
v 100.000000 42.000000 0.000000
v 100.000000 38.000000 0.000000
v 96.000000 38.000000 24.000000
v 100.000000 38.000000 24.000000
v 100.000000 42.000000 24.000000
v 96.000000 42.000000 24.000000
f 1405 1406 1407
f 1405 1407 1408
f 1409 1410 1411
f 1409 1411 1412
f 1405 1408 1410
f 1405 1410 1409
f 1406 1412 1411
f 1406 1411 1407
f 1405 1409 1412
f 1405 1412 1406
f 1408 1407 1411
f 1408 1411 1410
v 80.000000 38.000000 33.000000
v 80.000000 42.000000 33.000000
v 100.000000 42.000000 33.000000
v 100.000000 38.000000 33.000000
v 80.000000 38.000000 36.000000
v 100.000000 38.000000 36.000000
v 100.000000 42.000000 36.000000
v 80.000000 42.000000 36.000000
f 1413 1414 1415
f 1413 1415 1416
f 1417 1418 1419
f 1417 1419 1420
f 1413 1416 1418
f 1413 1418 1417
f 1414 1420 1419
f 1414 1419 1415
f 1413 1417 1420
f 1413 1420 1414
f 1416 1415 1419
f 1416 1419 1418
v 84.000000 38.250000 24.000000
v 84.000000 40.250000 24.000000
v 96.000000 40.250000 24.000000
v 96.000000 38.250000 24.000000
v 84.000000 38.250000 33.000000
v 96.000000 38.250000 33.000000
v 96.000000 40.250000 33.000000
v 84.000000 40.250000 33.000000
f 1421 1422 1423
f 1421 1423 1424
f 1425 1426 1427
f 1425 1427 1428
f 1421 1424 1426
f 1421 1426 1425
f 1422 1428 1427
f 1422 1427 1423
f 1421 1425 1428
f 1421 1428 1422
f 1424 1423 1427
f 1424 1427 1426
v 85.500000 40.250000 25.500000
v 85.500000 41.250000 25.500000
v 94.500000 41.250000 25.500000
v 94.500000 40.250000 25.500000
v 85.500000 40.250000 31.500000
v 94.500000 40.250000 31.500000
v 94.500000 41.250000 31.500000
v 85.500000 41.250000 31.500000
f 1429 1430 1431
f 1429 1431 1432
f 1433 1434 1435
f 1433 1435 1436
f 1429 1432 1434
f 1429 1434 1433
f 1430 1436 1435
f 1430 1435 1431
f 1429 1433 1436
f 1429 1436 1430
f 1432 1431 1435
f 1432 1435 1434
v -89.500000 -67.500000 0.000000
v -89.500000 -64.500000 0.000000
v -86.500000 -64.500000 0.000000
v -86.500000 -67.500000 0.000000
v -89.500000 -67.500000 34.000000
v -86.500000 -67.500000 34.000000
v -86.500000 -64.500000 34.000000
v -89.500000 -64.500000 34.000000
f 1437 1438 1439
f 1437 1439 1440
f 1441 1442 1443
f 1441 1443 1444
f 1437 1440 1442
f 1437 1442 1441
f 1438 1444 1443
f 1438 1443 1439
f 1437 1441 1444
f 1437 1444 1438
f 1440 1439 1443
f 1440 1443 1442
v -92.500000 -70.500000 34.000000
v -92.500000 -61.500000 34.000000
v -83.500000 -61.500000 34.000000
v -83.500000 -70.500000 34.000000
v -92.500000 -70.500000 38.000000
v -83.500000 -70.500000 38.000000
v -83.500000 -61.500000 38.000000
v -92.500000 -61.500000 38.000000
f 1445 1446 1447
f 1445 1447 1448
f 1449 1450 1451
f 1449 1451 1452
f 1445 1448 1450
f 1445 1450 1449
f 1446 1452 1451
f 1446 1451 1447
f 1445 1449 1452
f 1445 1452 1446
f 1448 1447 1451
f 1448 1451 1450
v 86.500000 -67.500000 0.000000
v 86.500000 -64.500000 0.000000
v 89.500000 -64.500000 0.000000
v 89.500000 -67.500000 0.000000
v 86.500000 -67.500000 34.000000
v 89.500000 -67.500000 34.000000
v 89.500000 -64.500000 34.000000
v 86.500000 -64.500000 34.000000
f 1453 1454 1455
f 1453 1455 1456
f 1457 1458 1459
f 1457 1459 1460
f 1453 1456 1458
f 1453 1458 1457
f 1454 1460 1459
f 1454 1459 1455
f 1453 1457 1460
f 1453 1460 1454
f 1456 1455 1459
f 1456 1459 1458
v 83.500000 -70.500000 34.000000
v 83.500000 -61.500000 34.000000
v 92.500000 -61.500000 34.000000
v 92.500000 -70.500000 34.000000
v 83.500000 -70.500000 38.000000
v 92.500000 -70.500000 38.000000
v 92.500000 -61.500000 38.000000
v 83.500000 -61.500000 38.000000
f 1461 1462 1463
f 1461 1463 1464
f 1465 1466 1467
f 1465 1467 1468
f 1461 1464 1466
f 1461 1466 1465
f 1462 1468 1467
f 1462 1467 1463
f 1461 1465 1468
f 1461 1468 1462
f 1464 1463 1467
f 1464 1467 1466
v -89.500000 64.500000 0.000000
v -89.500000 67.500000 0.000000
v -86.500000 67.500000 0.000000
v -86.500000 64.500000 0.000000
v -89.500000 64.500000 34.000000
v -86.500000 64.500000 34.000000
v -86.500000 67.500000 34.000000
v -89.500000 67.500000 34.000000
f 1469 1470 1471
f 1469 1471 1472
f 1473 1474 1475
f 1473 1475 1476
f 1469 1472 1474
f 1469 1474 1473
f 1470 1476 1475
f 1470 1475 1471
f 1469 1473 1476
f 1469 1476 1470
f 1472 1471 1475
f 1472 1475 1474
v -92.500000 61.500000 34.000000
v -92.500000 70.500000 34.000000
v -83.500000 70.500000 34.000000
v -83.500000 61.500000 34.000000
v -92.500000 61.500000 38.000000
v -83.500000 61.500000 38.000000
v -83.500000 70.500000 38.000000
v -92.500000 70.500000 38.000000
f 1477 1478 1479
f 1477 1479 1480
f 1481 1482 1483
f 1481 1483 1484
f 1477 1480 1482
f 1477 1482 1481
f 1478 1484 1483
f 1478 1483 1479
f 1477 1481 1484
f 1477 1484 1478
f 1480 1479 1483
f 1480 1483 1482
v 86.500000 64.500000 0.000000
v 86.500000 67.500000 0.000000
v 89.500000 67.500000 0.000000
v 89.500000 64.500000 0.000000
v 86.500000 64.500000 34.000000
v 89.500000 64.500000 34.000000
v 89.500000 67.500000 34.000000
v 86.500000 67.500000 34.000000
f 1485 1486 1487
f 1485 1487 1488
f 1489 1490 1491
f 1489 1491 1492
f 1485 1488 1490
f 1485 1490 1489
f 1486 1492 1491
f 1486 1491 1487
f 1485 1489 1492
f 1485 1492 1486
f 1488 1487 1491
f 1488 1491 1490
v 83.500000 61.500000 34.000000
v 83.500000 70.500000 34.000000
v 92.500000 70.500000 34.000000
v 92.500000 61.500000 34.000000
v 83.500000 61.500000 38.000000
v 92.500000 61.500000 38.000000
v 92.500000 70.500000 38.000000
v 83.500000 70.500000 38.000000
f 1493 1494 1495
f 1493 1495 1496
f 1497 1498 1499
f 1497 1499 1500
f 1493 1496 1498
f 1493 1498 1497
f 1494 1500 1499
f 1494 1499 1495
f 1493 1497 1500
f 1493 1500 1494
f 1496 1495 1499
f 1496 1499 1498
v -60.600000 51.400000 0.000000
v -60.600000 52.600000 0.000000
v -59.400000 52.600000 0.000000
v -59.400000 51.400000 0.000000
v -60.600000 51.400000 26.000000
v -59.400000 51.400000 26.000000
v -59.400000 52.600000 26.000000
v -60.600000 52.600000 26.000000
f 1501 1502 1503
f 1501 1503 1504
f 1505 1506 1507
f 1505 1507 1508
f 1501 1504 1506
f 1501 1506 1505
f 1502 1508 1507
f 1502 1507 1503
f 1501 1505 1508
f 1501 1508 1502
f 1504 1503 1507
f 1504 1507 1506
v -60.000000 51.800000 20.000000
v -60.000000 52.200000 20.000000
v -53.400000 52.200000 20.000000
v -53.400000 51.800000 20.000000
v -60.000000 51.800000 22.000000
v -53.400000 51.800000 22.000000
v -53.400000 52.200000 22.000000
v -60.000000 52.200000 22.000000
f 1509 1510 1511
f 1509 1511 1512
f 1513 1514 1515
f 1513 1515 1516
f 1509 1512 1514
f 1509 1514 1513
f 1510 1516 1515
f 1510 1515 1511
f 1509 1513 1516
f 1509 1516 1510
f 1512 1511 1515
f 1512 1515 1514
v -60.000000 51.800000 22.000000
v -60.000000 52.200000 22.000000
v -53.400000 52.200000 22.000000
v -53.400000 51.800000 22.000000
v -60.000000 51.800000 24.000000
v -53.400000 51.800000 24.000000
v -53.400000 52.200000 24.000000
v -60.000000 52.200000 24.000000
f 1517 1518 1519
f 1517 1519 1520
f 1521 1522 1523
f 1521 1523 1524
f 1517 1520 1522
f 1517 1522 1521
f 1518 1524 1523
f 1518 1523 1519
f 1517 1521 1524
f 1517 1524 1518
f 1520 1519 1523
f 1520 1523 1522
v -60.000000 51.800000 24.000000
v -60.000000 52.200000 24.000000
v -53.400000 52.200000 24.000000
v -53.400000 51.800000 24.000000
v -60.000000 51.800000 26.000000
v -53.400000 51.800000 26.000000
v -53.400000 52.200000 26.000000
v -60.000000 52.200000 26.000000
f 1525 1526 1527
f 1525 1527 1528
f 1529 1530 1531
f 1529 1531 1532
f 1525 1528 1530
f 1525 1530 1529
f 1526 1532 1531
f 1526 1531 1527
f 1525 1529 1532
f 1525 1532 1526
f 1528 1527 1531
f 1528 1531 1530
v -16.500000 56.500000 0.000000
v -16.500000 61.500000 0.000000
v -11.500000 61.500000 0.000000
v -11.500000 56.500000 0.000000
v -16.500000 56.500000 16.000000
v -11.500000 56.500000 16.000000
v -11.500000 61.500000 16.000000
v -16.500000 61.500000 16.000000
f 1533 1534 1535
f 1533 1535 1536
f 1537 1538 1539
f 1537 1539 1540
f 1533 1536 1538
f 1533 1538 1537
f 1534 1540 1539
f 1534 1539 1535
f 1533 1537 1540
f 1533 1540 1534
f 1536 1535 1539
f 1536 1539 1538
v 11.500000 56.500000 0.000000
v 11.500000 61.500000 0.000000
v 16.500000 61.500000 0.000000
v 16.500000 56.500000 0.000000
v 11.500000 56.500000 16.000000
v 16.500000 56.500000 16.000000
v 16.500000 61.500000 16.000000
v 11.500000 61.500000 16.000000
f 1541 1542 1543
f 1541 1543 1544
f 1545 1546 1547
f 1545 1547 1548
f 1541 1544 1546
f 1541 1546 1545
f 1542 1548 1547
f 1542 1547 1543
f 1541 1545 1548
f 1541 1548 1542
f 1544 1543 1547
f 1544 1547 1546
v -16.500000 56.500000 16.000000
v -16.500000 61.500000 16.000000
v 16.500000 61.500000 16.000000
v 16.500000 56.500000 16.000000
v -16.500000 56.500000 20.000000
v 16.500000 56.500000 20.000000
v 16.500000 61.500000 20.000000
v -16.500000 61.500000 20.000000
f 1549 1550 1551
f 1549 1551 1552
f 1553 1554 1555
f 1553 1555 1556
f 1549 1552 1554
f 1549 1554 1553
f 1550 1556 1555
f 1550 1555 1551
f 1549 1553 1556
f 1549 1556 1550
f 1552 1551 1555
f 1552 1555 1554
v -54.700000 -35.800000 2.600000
v -54.700000 -35.400000 2.600000
v -54.300000 -35.400000 2.600000
v -54.300000 -35.800000 2.600000
v -54.700000 -35.800000 5.600000
v -54.300000 -35.800000 5.600000
v -54.300000 -35.400000 5.600000
v -54.700000 -35.400000 5.600000
f 1557 1558 1559
f 1557 1559 1560
f 1561 1562 1563
f 1561 1563 1564
f 1557 1560 1562
f 1557 1562 1561
f 1558 1564 1563
f 1558 1563 1559
f 1557 1561 1564
f 1557 1564 1558
f 1560 1559 1563
f 1560 1563 1562
v -54.500000 -35.750000 4.600000
v -54.500000 -35.450000 4.600000
v -52.700000 -35.450000 4.600000
v -52.700000 -35.750000 4.600000
v -54.500000 -35.750000 5.600000
v -52.700000 -35.750000 5.600000
v -52.700000 -35.450000 5.600000
v -54.500000 -35.450000 5.600000
f 1565 1566 1567
f 1565 1567 1568
f 1569 1570 1571
f 1569 1571 1572
f 1565 1568 1570
f 1565 1570 1569
f 1566 1572 1571
f 1566 1571 1567
f 1565 1569 1572
f 1565 1572 1566
f 1568 1567 1571
f 1568 1571 1570
v 54.300000 -35.800000 2.600000
v 54.300000 -35.400000 2.600000
v 54.700000 -35.400000 2.600000
v 54.700000 -35.800000 2.600000
v 54.300000 -35.800000 5.600000
v 54.700000 -35.800000 5.600000
v 54.700000 -35.400000 5.600000
v 54.300000 -35.400000 5.600000
f 1573 1574 1575
f 1573 1575 1576
f 1577 1578 1579
f 1577 1579 1580
f 1573 1576 1578
f 1573 1578 1577
f 1574 1580 1579
f 1574 1579 1575
f 1573 1577 1580
f 1573 1580 1574
f 1576 1575 1579
f 1576 1579 1578
v 54.500000 -35.750000 4.600000
v 54.500000 -35.450000 4.600000
v 56.300000 -35.450000 4.600000
v 56.300000 -35.750000 4.600000
v 54.500000 -35.750000 5.600000
v 56.300000 -35.750000 5.600000
v 56.300000 -35.450000 5.600000
v 54.500000 -35.450000 5.600000
f 1581 1582 1583
f 1581 1583 1584
f 1585 1586 1587
f 1585 1587 1588
f 1581 1584 1586
f 1581 1586 1585
f 1582 1588 1587
f 1582 1587 1583
f 1581 1585 1588
f 1581 1588 1582
f 1584 1583 1587
f 1584 1587 1586
v -54.700000 35.400000 2.600000
v -54.700000 35.800000 2.600000
v -54.300000 35.800000 2.600000
v -54.300000 35.400000 2.600000
v -54.700000 35.400000 5.600000
v -54.300000 35.400000 5.600000
v -54.300000 35.800000 5.600000
v -54.700000 35.800000 5.600000
f 1589 1590 1591
f 1589 1591 1592
f 1593 1594 1595
f 1593 1595 1596
f 1589 1592 1594
f 1589 1594 1593
f 1590 1596 1595
f 1590 1595 1591
f 1589 1593 1596
f 1589 1596 1590
f 1592 1591 1595
f 1592 1595 1594
v -54.500000 35.450000 4.600000
v -54.500000 35.750000 4.600000
v -52.700000 35.750000 4.600000
v -52.700000 35.450000 4.600000
v -54.500000 35.450000 5.600000
v -52.700000 35.450000 5.600000
v -52.700000 35.750000 5.600000
v -54.500000 35.750000 5.600000
f 1597 1598 1599
f 1597 1599 1600
f 1601 1602 1603
f 1601 1603 1604
f 1597 1600 1602
f 1597 1602 1601
f 1598 1604 1603
f 1598 1603 1599
f 1597 1601 1604
f 1597 1604 1598
f 1600 1599 1603
f 1600 1603 1602
v 54.300000 35.400000 2.600000
v 54.300000 35.800000 2.600000
v 54.700000 35.800000 2.600000
v 54.700000 35.400000 2.600000
v 54.300000 35.400000 5.600000
v 54.700000 35.400000 5.600000
v 54.700000 35.800000 5.600000
v 54.300000 35.800000 5.600000
f 1605 1606 1607
f 1605 1607 1608
f 1609 1610 1611
f 1609 1611 1612
f 1605 1608 1610
f 1605 1610 1609
f 1606 1612 1611
f 1606 1611 1607
f 1605 1609 1612
f 1605 1612 1606
f 1608 1607 1611
f 1608 1611 1610
v 54.500000 35.450000 4.600000
v 54.500000 35.750000 4.600000
v 56.300000 35.750000 4.600000
v 56.300000 35.450000 4.600000
v 54.500000 35.450000 5.600000
v 56.300000 35.450000 5.600000
v 56.300000 35.750000 5.600000
v 54.500000 35.750000 5.600000
f 1613 1614 1615
f 1613 1615 1616
f 1617 1618 1619
f 1617 1619 1620
f 1613 1616 1618
f 1613 1618 1617
f 1614 1620 1619
f 1614 1619 1615
f 1613 1617 1620
f 1613 1620 1614
f 1616 1615 1619
f 1616 1619 1618
v -97.300000 -74.300000 0.000000
v -97.300000 -73.700000 0.000000
v -96.700000 -73.700000 0.000000
v -96.700000 -74.300000 0.000000
v -97.300000 -74.300000 0.600000
v -96.700000 -74.300000 0.600000
v -96.700000 -73.700000 0.600000
v -97.300000 -73.700000 0.600000
f 1621 1622 1623
f 1621 1623 1624
f 1625 1626 1627
f 1625 1627 1628
f 1621 1624 1626
f 1621 1626 1625
f 1622 1628 1627
f 1622 1627 1623
f 1621 1625 1628
f 1621 1628 1622
f 1624 1623 1627
f 1624 1627 1626
v 96.700000 -74.300000 0.000000
v 96.700000 -73.700000 0.000000
v 97.300000 -73.700000 0.000000
v 97.300000 -74.300000 0.000000
v 96.700000 -74.300000 0.600000
v 97.300000 -74.300000 0.600000
v 97.300000 -73.700000 0.600000
v 96.700000 -73.700000 0.600000
f 1629 1630 1631
f 1629 1631 1632
f 1633 1634 1635
f 1633 1635 1636
f 1629 1632 1634
f 1629 1634 1633
f 1630 1636 1635
f 1630 1635 1631
f 1629 1633 1636
f 1629 1636 1630
f 1632 1631 1635
f 1632 1635 1634
v -97.300000 73.700000 0.000000
v -97.300000 74.300000 0.000000
v -96.700000 74.300000 0.000000
v -96.700000 73.700000 0.000000
v -97.300000 73.700000 0.600000
v -96.700000 73.700000 0.600000
v -96.700000 74.300000 0.600000
v -97.300000 74.300000 0.600000
f 1637 1638 1639
f 1637 1639 1640
f 1641 1642 1643
f 1641 1643 1644
f 1637 1640 1642
f 1637 1642 1641
f 1638 1644 1643
f 1638 1643 1639
f 1637 1641 1644
f 1637 1644 1638
f 1640 1639 1643
f 1640 1643 1642
v 96.700000 73.700000 0.000000
v 96.700000 74.300000 0.000000
v 97.300000 74.300000 0.000000
v 97.300000 73.700000 0.000000
v 96.700000 73.700000 0.600000
v 97.300000 73.700000 0.600000
v 97.300000 74.300000 0.600000
v 96.700000 74.300000 0.600000
f 1645 1646 1647
f 1645 1647 1648
f 1649 1650 1651
f 1649 1651 1652
f 1645 1648 1650
f 1645 1650 1649
f 1646 1652 1651
f 1646 1651 1647
f 1645 1649 1652
f 1645 1652 1646
f 1648 1647 1651
f 1648 1651 1650
